<?xml version="1.0" encoding="UTF-8"?>
<svg version="1.1" xmlns="http://www.w3.org/2000/svg" width="157" height="157">
<path d="M0 0 C0.73471024 -0.0066568 1.46942047 -0.0133136 2.22639465 -0.02017212 C3.77175422 -0.0302272 5.31715658 -0.03499137 6.86254883 -0.03466797 C9.18451496 -0.0390203 11.50454332 -0.075355 13.82617188 -0.11328125 C33.28984423 -0.26195513 48.30271253 6.76963983 63.01953125 19.3359375 C63.82519531 19.93148438 64.63085938 20.52703125 65.4609375 21.140625 C78.31443756 32.16912429 86.93208406 50.2751522 88.32177734 66.96606445 C88.4567171 70.86552235 88.48730796 74.74679444 88.45703125 78.6484375 C88.45365753 79.33258728 88.45028381 80.01673706 88.44680786 80.72161865 C88.28456015 103.40643627 80.79369241 120.13161964 65.01953125 136.3359375 C49.62975461 151.37987647 28.11069008 157.6484375 7.09155273 157.6484375 C-10.58766697 157.4054811 -28.69372791 151.40789061 -41.98046875 139.3359375 C-42.70097412 138.69277588 -42.70097412 138.69277588 -43.43603516 138.03662109 C-56.27885581 126.42757486 -63.22037214 113.96563122 -67.98046875 97.3359375 C-68.16005127 96.74127686 -68.33963379 96.14661621 -68.5246582 95.53393555 C-69.62145866 90.24497225 -69.20913451 84.65233282 -69.23046875 79.2734375 C-69.25109375 78.00048828 -69.27171875 76.72753906 -69.29296875 75.41601562 C-69.32533994 67.53767788 -68.51519275 60.79345314 -65.98046875 53.3359375 C-65.62726563 52.19382813 -65.2740625 51.05171875 -64.91015625 49.875 C-57.36910639 29.03935855 -41.92167867 14.4533592 -22.29296875 5.0234375 C-14.94652508 1.61625588 -8.0708818 0.02628041 0 0 Z " fill="#1C6697" transform="translate(68.98046875,-0.3359375)"/>
<path d="M0 0 C10.73191911 2.99495417 16.2460769 12.07157491 22 21 C29.29758332 33.98000736 31.55041872 46.53821486 31.4375 61.3125 C31.43479095 61.99299408 31.43208191 62.67348816 31.42929077 63.37460327 C31.3016832 84.46897296 31.3016832 84.46897296 27 92 C24.46875 93.25390625 24.46875 93.25390625 22 94 C20.22722741 95.52007842 20.22722741 95.52007842 19 97 C19.33 97.66 19.66 98.32 20 99 C19.25887768 102.55738712 18.8307654 104.4461564 15.75 106.5 C12.28436555 107.13011535 10.21005322 106.34374321 7 105 C7 103.68 7 102.36 7 101 C5.68 101.33 4.36 101.66 3 102 C3.495 100.515 3.495 100.515 4 99 C4.08178114 97.29983156 4.10749501 95.59663703 4.09765625 93.89453125 C4.09443359 92.91162109 4.09121094 91.92871094 4.08789062 90.91601562 C4.07951172 89.89185547 4.07113281 88.86769531 4.0625 87.8125 C4.05798828 86.77673828 4.05347656 85.74097656 4.04882812 84.67382812 C4.0370401 82.11582734 4.02058515 79.55794267 4 77 C3.9906543 77.59425781 3.98130859 78.18851562 3.97167969 78.80078125 C3.91747007 81.53464645 3.83392722 84.26689199 3.75 87 C3.73582031 87.93457031 3.72164063 88.86914062 3.70703125 89.83203125 C3.49223589 95.97517845 2.58097392 100.89255195 -1 106 C-6.72836297 110.58269038 -10.98792769 109 -19 109 C-19 98.44 -19 87.88 -19 77 C-24.88214887 78.17504209 -24.88214887 78.17504209 -26 81 C-26.66 81 -27.32 81 -28 81 C-28.495 82.485 -28.495 82.485 -29 84 C-29.61875 84.144375 -30.2375 84.28875 -30.875 84.4375 C-33.1954088 84.81247375 -33.1954088 84.81247375 -34.5 87.0625 C-34.995 87.701875 -35.49 88.34125 -36 89 C-37.32 89 -38.64 89 -40 89 C-39.34 90.32 -38.68 91.64 -38 93 C-44.74976704 97.95097126 -44.74976704 97.95097126 -49.1875 98.125 C-52.98315218 96.60673913 -54.69495821 95.42263781 -57 92 C-57.92171684 88.25641161 -57.41966333 85.56326095 -56 82 C-52.93464143 77.47663439 -49.16489786 73.52720592 -45.43505859 69.55224609 C-42.619275 66.50652441 -40.31842327 63.9552698 -39 60 C-40.27875 60.268125 -41.5575 60.53625 -42.875 60.8125 C-43.59429687 60.96332031 -44.31359375 61.11414063 -45.0546875 61.26953125 C-47.37046549 61.92308838 -47.37046549 61.92308838 -49 65 C-49.33 64.01 -49.66 63.02 -50 62 C-51.32 62 -52.64 62 -54 62 C-55.6446674 64.46326712 -55.6446674 64.46326712 -57 67 C-57.66 67 -58.32 67 -59 67 C-59.2475 67.5775 -59.495 68.155 -59.75 68.75 C-61.16926295 71.3046733 -62.94069854 72.94069854 -65 75 C-66.23512079 77.13309192 -66.23512079 77.13309192 -67 79 C-70.73724331 77.49506981 -72.58268345 75.38337568 -75.0625 72.25 C-75.85785156 71.27933594 -76.65320313 70.30867188 -77.47265625 69.30859375 C-79.28889656 67.00895951 -80.88253668 64.64545034 -82.43359375 62.16015625 C-86.57323556 55.39005911 -86.57323556 55.39005911 -93.08544922 51.36914062 C-99.38458784 50.55599646 -105.91278362 51.20403277 -112 53 C-112.33 51.68 -112.66 50.36 -113 49 C-111.0625 48.4375 -111.0625 48.4375 -109 48 C-108.67 48.33 -108.34 48.66 -108 49 C-105.47403741 49.23653523 -102.96892793 49.42173692 -100.4375 49.5625 C-99.72658203 49.60568359 -99.01566406 49.64886719 -98.28320312 49.69335938 C-96.52238088 49.79971777 -94.7612168 49.90038846 -93 50 C-93.65742187 49.236875 -94.31484375 48.47375 -94.9921875 47.6875 C-97 45 -97 45 -97.125 42 C-95.42523994 37.46730651 -92.34791319 35.1739566 -88 33 C-83.0704774 32.30986684 -79.90954536 32.39935684 -75.6875 35.1875 C-73.28856635 37.69801195 -71.07008488 40.21334727 -69 43 C-67.00016466 42.20882096 -67.00016466 42.20882096 -65 41 C-64.67 40.01 -64.34 39.02 -64 38 C-63 37 -62 36 -61 35 C-60.67 34.01 -60.34 33.02 -60 32 C-58.37660195 30.29115995 -56.70680947 28.62553283 -55 27 C-54.566875 26.38125 -54.13375 25.7625 -53.6875 25.125 C-51.13265759 23.42177172 -48.89163975 24.18308558 -45.99609375 24.671875 C-43.64038477 25.05911483 -41.3827775 25.06807936 -39 25 C-38.01 25 -37.02 25 -36 25 C-34.46417013 27.83836913 -33.51269491 30.47675522 -32.8125 33.625 C-32.63332031 34.40101562 -32.45414062 35.17703125 -32.26953125 35.9765625 C-32 38 -32 38 -33 40 C-31.35 40 -29.7 40 -28 40 C-28 41.32 -28 42.64 -28 44 C-27.34 43.01 -26.68 42.02 -26 41 C-25.01 41 -24.02 41 -23 41 C-23 40.01 -23 39.02 -23 38 C-22 37 -21 36 -20 35 C-18.80972016 32.40084462 -18.80972016 32.40084462 -18 30 C-18.680625 29.236875 -19.36125 28.47375 -20.0625 27.6875 C-20.701875 26.800625 -21.34125 25.91375 -22 25 C-21.505 23.515 -21.505 23.515 -21 22 C-20.23816406 21.89042969 -19.47632812 21.78085937 -18.69140625 21.66796875 C-12.92257363 20.78211805 -7.59717066 19.64909011 -2.11328125 17.6640625 C1.22648897 16.61459681 4.52057545 16.31631132 8 16 C8.33 14.02 8.66 12.04 9 10 C6.02588876 8.76078698 3.14737182 7.69941596 0 7 C0 4.69 0 2.38 0 0 Z " fill="#1F89A3" transform="translate(126,17)"/>
<path d="M0 0 C2.35570898 0.38723983 4.61331625 0.39620436 6.99609375 0.328125 C7.98609375 0.328125 8.97609375 0.328125 9.99609375 0.328125 C11.53192362 3.16649413 12.48339884 5.80488022 13.18359375 8.953125 C13.36277344 9.72914062 13.54195313 10.50515625 13.7265625 11.3046875 C13.99609375 13.328125 13.99609375 13.328125 12.99609375 15.328125 C14.64609375 15.328125 16.29609375 15.328125 17.99609375 15.328125 C17.99609375 16.648125 17.99609375 17.968125 17.99609375 19.328125 C18.98609375 17.843125 18.98609375 17.843125 19.99609375 16.328125 C20.98609375 16.328125 21.97609375 16.328125 22.99609375 16.328125 C22.99609375 15.338125 22.99609375 14.348125 22.99609375 13.328125 C23.99609375 12.328125 24.99609375 11.328125 25.99609375 10.328125 C27.49048488 8.0088643 27.49048488 8.0088643 27.99609375 5.328125 C26.73276102 2.52645213 26.73276102 2.52645213 24.99609375 0.328125 C27.93359375 1.078125 27.93359375 1.078125 30.99609375 2.328125 C31.8828125 4.09765625 31.8828125 4.09765625 31.99609375 6.328125 C28.98460172 12.07988774 24.6151726 16.82748407 19.99609375 21.328125 C18.3960236 23.44165049 16.84908641 25.58282413 15.328125 27.75390625 C14.88855469 28.27339844 14.44898437 28.79289062 13.99609375 29.328125 C13.33609375 29.328125 12.67609375 29.328125 11.99609375 29.328125 C11.81433594 29.93140625 11.63257812 30.5346875 11.4453125 31.15625 C10.09375994 35.45349403 8.86855927 38.8028264 5.99609375 42.328125 C5.82787109 43.26205078 5.82787109 43.26205078 5.65625 44.21484375 C4.7757214 47.0335773 3.35035032 48.00466588 1.05859375 49.828125 C-1.8807597 52.1753401 -3.38424873 53.96368621 -5.00390625 57.328125 C-7.62890625 59.078125 -7.62890625 59.078125 -10.00390625 60.328125 C-9.13782607 55.88128645 -6.62113514 53.20694166 -3.69140625 49.890625 C-2.71556167 48.76743435 -1.74029226 47.64374369 -0.765625 46.51953125 C-0.29688965 45.9795752 0.1718457 45.43961914 0.65478516 44.88330078 C4.51399093 40.51364587 4.51399093 40.51364587 6.99609375 35.328125 C5.71734375 35.59625 4.43859375 35.864375 3.12109375 36.140625 C2.40179688 36.29144531 1.6825 36.44226563 0.94140625 36.59765625 C-1.37437174 37.25121338 -1.37437174 37.25121338 -3.00390625 40.328125 C-3.33390625 39.338125 -3.66390625 38.348125 -4.00390625 37.328125 C-5.32390625 37.328125 -6.64390625 37.328125 -8.00390625 37.328125 C-9.64857365 39.79139212 -9.64857365 39.79139212 -11.00390625 42.328125 C-11.66390625 42.328125 -12.32390625 42.328125 -13.00390625 42.328125 C-13.25140625 42.905625 -13.49890625 43.483125 -13.75390625 44.078125 C-15.1731692 46.6327983 -16.94460479 48.26882354 -19.00390625 50.328125 C-20.23902704 52.46121692 -20.23902704 52.46121692 -21.00390625 54.328125 C-24.74114956 52.82319481 -26.5865897 50.71150068 -29.06640625 47.578125 C-29.86175781 46.60746094 -30.65710937 45.63679688 -31.4765625 44.63671875 C-33.29280281 42.33708451 -34.88644293 39.97357534 -36.4375 37.48828125 C-40.57714181 30.71818411 -40.57714181 30.71818411 -47.08935547 26.69726562 C-53.38849409 25.88412146 -59.91668987 26.53215777 -66.00390625 28.328125 C-66.33390625 27.008125 -66.66390625 25.688125 -67.00390625 24.328125 C-65.06640625 23.765625 -65.06640625 23.765625 -63.00390625 23.328125 C-62.67390625 23.658125 -62.34390625 23.988125 -62.00390625 24.328125 C-59.47794366 24.56466023 -56.97283418 24.74986192 -54.44140625 24.890625 C-53.3750293 24.95540039 -53.3750293 24.95540039 -52.28710938 25.02148438 C-50.52628713 25.12784277 -48.76512305 25.22851346 -47.00390625 25.328125 C-47.66132812 24.565 -48.31875 23.801875 -48.99609375 23.015625 C-51.00390625 20.328125 -51.00390625 20.328125 -51.12890625 17.328125 C-49.42914619 12.79543151 -46.35181944 10.5020816 -42.00390625 8.328125 C-37.07438365 7.63799184 -33.91345161 7.72748184 -29.69140625 10.515625 C-27.2924726 13.02613695 -25.07399113 15.54147227 -23.00390625 18.328125 C-21.00407091 17.53694596 -21.00407091 17.53694596 -19.00390625 16.328125 C-18.50890625 14.843125 -18.50890625 14.843125 -18.00390625 13.328125 C-17.00390625 12.328125 -16.00390625 11.328125 -15.00390625 10.328125 C-14.67390625 9.338125 -14.34390625 8.348125 -14.00390625 7.328125 C-12.3805082 5.61928495 -10.71071572 3.95365783 -9.00390625 2.328125 C-8.57078125 1.709375 -8.13765625 1.090625 -7.69140625 0.453125 C-5.13656384 -1.25010328 -2.895546 -0.48878942 0 0 Z " fill="#20A7B7" transform="translate(80.00390625,41.671875)"/>
<path d="M0 0 C1.32 0.66 2.64 1.32 4 2 C4 2.99 4 3.98 4 5 C4.99 5.33 5.98 5.66 7 6 C6.34 6 5.68 6 5 6 C4.855625 6.61875 4.71125 7.2375 4.5625 7.875 C4 10 4 10 3 12 C2.95324716 13.95777517 2.96243697 15.91702695 3 17.875 C3.05733401 24.30357641 2.64503369 30.60725542 2 37 C1.4225 36.690625 0.845 36.38125 0.25 36.0625 C-1.84294184 35.07416636 -3.74535275 34.4831387 -6 34 C-7.73267779 36.01791721 -9.46205139 38.03841076 -11.1875 40.0625 C-11.69273193 40.65506592 -12.19796387 41.24763184 -12.71850586 41.8581543 C-15.31237969 44.9240233 -17.7975786 47.99061528 -20.0625 51.3125 C-20.701875 52.199375 -21.34125 53.08625 -22 54 C-22.66 54 -23.32 54 -24 54 C-24.2371875 54.53109375 -24.474375 55.0621875 -24.71875 55.609375 C-26.37378384 58.69742595 -28.40548128 61.4528472 -30.5 64.25 C-30.90347656 64.80429688 -31.30695313 65.35859375 -31.72265625 65.9296875 C-32.76450171 67.32569165 -33.87745412 68.66802392 -35 70 C-35.66 70 -36.32 70 -37 70 C-37.33 70.99 -37.66 71.98 -38 73 C-38.928125 73.2165625 -38.928125 73.2165625 -39.875 73.4375 C-42.1954088 73.81247375 -42.1954088 73.81247375 -43.5 76.0625 C-44.2425 77.0215625 -44.2425 77.0215625 -45 78 C-46.32 78 -47.64 78 -49 78 C-48.34 79.32 -47.68 80.64 -47 82 C-53.74976704 86.95097126 -53.74976704 86.95097126 -58.1875 87.125 C-61.86446286 85.65421485 -63.68495937 84.22702634 -66 81 C-66.1875 77.5 -66.1875 77.5 -65 74 C-62.0625 71.3125 -62.0625 71.3125 -59 69 C-58.6803125 68.35417969 -58.360625 67.70835938 -58.03125 67.04296875 C-56.52465596 64.05831464 -54.17358624 62.56315954 -51.55859375 60.5625 C-49.72864569 58.7279656 -49.4860999 57.50138905 -49 55 C-48.525625 54.38125 -48.05125 53.7625 -47.5625 53.125 C-45.67043405 50.5517903 -44.92530485 48.04028738 -44 45 C-43.67 44.34 -43.34 43.68 -43 43 C-42.34 43 -41.68 43 -41 43 C-40.731875 42.41734375 -40.46375 41.8346875 -40.1875 41.234375 C-38.98519009 38.97213399 -37.66174087 37.19423682 -36 35.25 C-35.484375 34.63640625 -34.96875 34.0228125 -34.4375 33.390625 C-33 32 -33 32 -31 32 C-30.773125 31.319375 -30.54625 30.63875 -30.3125 29.9375 C-28.90837746 26.79494004 -27.16066167 24.42071244 -25.0234375 21.74609375 C-23.66288669 19.7621693 -23.66288669 19.7621693 -24 16 C-24.598125 15.855625 -25.19625 15.71125 -25.8125 15.5625 C-27.56150404 15.1127561 -29.28677023 14.57107659 -31 14 C-30.67 13.01 -30.34 12.02 -30 11 C-29.23816406 10.89042969 -28.47632813 10.78085937 -27.69140625 10.66796875 C-21.92257363 9.78211805 -16.59717066 8.64909011 -11.11328125 6.6640625 C-7.77351103 5.61459681 -4.47942455 5.31631132 -1 5 C-0.67 3.35 -0.34 1.7 0 0 Z " fill="#22BABB" transform="translate(135,28)"/>
<path d="M0 0 C3.04453575 0.03315831 6.08191807 0.10049106 9.125 0.1875 C9.9809375 0.19330078 10.836875 0.19910156 11.71875 0.20507812 C19.22926176 0.46505738 21.83110506 2.69332702 26.9765625 8.0625 C27.52054688 8.701875 28.06453125 9.34125 28.625 10 C29.17414062 10.639375 29.72328125 11.27875 30.2890625 11.9375 C30.85367188 12.618125 31.41828125 13.29875 32 14 C33.03084717 15.11024536 33.03084717 15.11024536 34.08251953 16.24291992 C36.37553071 19.53996287 36.46890145 21.20325163 36.390625 25.17578125 C36.37773438 26.33271484 36.36484375 27.48964844 36.3515625 28.68164062 C36.31804688 29.87982422 36.28453125 31.07800781 36.25 32.3125 C36.23195312 33.53001953 36.21390625 34.74753906 36.1953125 36.00195312 C36.14825131 39.00210422 36.0825131 42.00064889 36 45 C34.42603951 45.04426232 32.8517119 45.07556822 31.27734375 45.1015625 C29.96237915 45.12984131 29.96237915 45.12984131 28.62084961 45.15869141 C24.49073291 44.90861448 21.24877257 43.53810357 18 41 C14.36213176 35.48452234 13.87163964 30.08403697 13.90234375 23.60546875 C13.90556641 22.40341797 13.90878906 21.20136719 13.91210938 19.96289062 C13.92048828 18.71701172 13.92886719 17.47113281 13.9375 16.1875 C13.94426758 14.28967773 13.94426758 14.28967773 13.95117188 12.35351562 C13.96293738 9.2356568 13.98087226 6.11782235 14 3 C9.38 3.33 4.76 3.66 0 4 C0 2.68 0 1.36 0 0 Z " fill="#276DA6" transform="translate(14,81)"/>
<path d="M0 0 C0.66 0 1.32 0 2 0 C2.09931654 5.97732771 2.17167995 11.9541688 2.21972656 17.93212891 C2.23976836 19.96313857 2.26700947 21.99409106 2.30175781 24.02490234 C2.35060414 26.95424556 2.37304343 29.882822 2.390625 32.8125 C2.41127014 33.71178223 2.43191528 34.61106445 2.45318604 35.53759766 C2.45519541 41.2592195 1.74616834 46.43997585 -2 51 C-4.76664899 52.15242397 -7.2705296 52.3841902 -10.25 52.5 C-10.99507812 52.55929688 -11.74015625 52.61859375 -12.5078125 52.6796875 C-14.33625094 52.82033661 -16.16814035 52.91479723 -18 53 C-19.39276213 48.82171361 -19.18424906 44.87575966 -19.1875 40.5 C-19.19974609 39.63246094 -19.21199219 38.76492187 -19.22460938 37.87109375 C-19.22654297 37.03707031 -19.22847656 36.20304687 -19.23046875 35.34375 C-19.23457764 34.58255859 -19.23868652 33.82136719 -19.24291992 33.03710938 C-19 31 -19 31 -17 28 C-16.34 28 -15.68 28 -15 28 C-14.938125 27.278125 -14.87625 26.55625 -14.8125 25.8125 C-13.75345729 22.14658294 -11.70400728 20.63805589 -9 18 C-7.17404527 14.43938828 -6.55086122 10.94783873 -6 7 C-5.34 7 -4.68 7 -4 7 C-3.71125 6.401875 -3.4225 5.80375 -3.125 5.1875 C-2 3 -2 3 0 0 Z " fill="#23B0B8" transform="translate(127,72)"/>
<path d="M0 0 C0.94746094 0.00386719 1.89492187 0.00773437 2.87109375 0.01171875 C5.56839177 0.31315844 7.24735928 0.93874037 9.5625 2.3125 C9.5625 2.9725 9.5625 3.6325 9.5625 4.3125 C10.8825 4.6425 12.2025 4.9725 13.5625 5.3125 C14.2225 8.6125 14.8825 11.9125 15.5625 15.3125 C16.5525 13.9925 17.5425 12.6725 18.5625 11.3125 C19.5625 12.3125 19.5625 12.3125 19.625 14.875 C19.604375 15.679375 19.58375 16.48375 19.5625 17.3125 C18.5725 17.6425 17.5825 17.9725 16.5625 18.3125 C16.43875 18.89 16.315 19.4675 16.1875 20.0625 C15.22576074 23.52476135 13.32885165 25.11199301 10.5625 27.3125 C8 27.0625 8 27.0625 5.5625 26.3125 C3.46428785 26.71188767 3.46428785 26.71188767 1.5625 27.3125 C0.5725 27.3125 -0.4175 27.3125 -1.4375 27.3125 C-1.4375 26.6525 -1.4375 25.9925 -1.4375 25.3125 C-2.7575 25.6425 -4.0775 25.9725 -5.4375 26.3125 C-6.0975 24.9925 -6.7575 23.6725 -7.4375 22.3125 C-8.0975 22.3125 -8.7575 22.3125 -9.4375 22.3125 C-9.57027344 21.70921875 -9.70304687 21.1059375 -9.83984375 20.484375 C-10.01644531 19.68515625 -10.19304687 18.8859375 -10.375 18.0625 C-10.54902344 17.27359375 -10.72304687 16.4846875 -10.90234375 15.671875 C-11.39579581 13.33701256 -11.39579581 13.33701256 -12.11328125 11.20703125 C-12.4375 9.3125 -12.4375 9.3125 -10.6875 6.25 C-5.82161143 -0.10268785 -5.82161143 -0.10268785 0 0 Z " fill="#5D7F9F" transform="translate(76.4375,47.6875)"/>
<path d="M0 0 C2.35570898 0.38723983 4.61331625 0.39620436 6.99609375 0.328125 C7.98609375 0.328125 8.97609375 0.328125 9.99609375 0.328125 C11.53192362 3.16649413 12.48339884 5.80488022 13.18359375 8.953125 C13.36277344 9.72914062 13.54195312 10.50515625 13.7265625 11.3046875 C13.99609375 13.328125 13.99609375 13.328125 12.99609375 15.328125 C14.64609375 15.328125 16.29609375 15.328125 17.99609375 15.328125 C17.99609375 16.648125 17.99609375 17.968125 17.99609375 19.328125 C18.65609375 18.338125 19.31609375 17.348125 19.99609375 16.328125 C20.98609375 16.328125 21.97609375 16.328125 22.99609375 16.328125 C22.99609375 15.338125 22.99609375 14.348125 22.99609375 13.328125 C23.99609375 12.328125 24.99609375 11.328125 25.99609375 10.328125 C27.49048488 8.0088643 27.49048488 8.0088643 27.99609375 5.328125 C26.73276102 2.52645213 26.73276102 2.52645213 24.99609375 0.328125 C27.93359375 1.078125 27.93359375 1.078125 30.99609375 2.328125 C31.8828125 4.09765625 31.8828125 4.09765625 31.99609375 6.328125 C28.98460172 12.07988774 24.6151726 16.82748407 19.99609375 21.328125 C18.3960236 23.44165049 16.84908641 25.58282413 15.328125 27.75390625 C14.88855469 28.27339844 14.44898438 28.79289062 13.99609375 29.328125 C13.33609375 29.328125 12.67609375 29.328125 11.99609375 29.328125 C11.81433594 29.93140625 11.63257813 30.5346875 11.4453125 31.15625 C10.09375994 35.45349403 8.86855927 38.8028264 5.99609375 42.328125 C5.88394531 42.95074219 5.77179688 43.57335937 5.65625 44.21484375 C4.7757214 47.0335773 3.35035032 48.00466588 1.05859375 49.828125 C-1.8807597 52.1753401 -3.38424873 53.96368621 -5.00390625 57.328125 C-7.62890625 59.078125 -7.62890625 59.078125 -10.00390625 60.328125 C-9.13782607 55.88128645 -6.62113514 53.20694166 -3.69140625 49.890625 C-2.71556167 48.76743435 -1.74029226 47.64374369 -0.765625 46.51953125 C-0.29688965 45.9795752 0.1718457 45.43961914 0.65478516 44.88330078 C4.51399093 40.51364587 4.51399093 40.51364587 6.99609375 35.328125 C5.71734375 35.59625 4.43859375 35.864375 3.12109375 36.140625 C2.40179688 36.29144531 1.6825 36.44226563 0.94140625 36.59765625 C-1.37437174 37.25121338 -1.37437174 37.25121338 -3.00390625 40.328125 C-3.33390625 39.338125 -3.66390625 38.348125 -4.00390625 37.328125 C-5.65390625 37.328125 -7.30390625 37.328125 -9.00390625 37.328125 C-9.23078125 36.77125 -9.45765625 36.214375 -9.69140625 35.640625 C-11.37418717 32.67572528 -13.56499137 30.71161 -16.00390625 28.328125 C-17.14733037 27.15835471 -18.27217052 25.97016528 -19.37890625 24.765625 C-19.90226562 24.20746094 -20.425625 23.64929688 -20.96484375 23.07421875 C-22.00390625 21.328125 -22.00390625 21.328125 -21.79296875 19.17578125 C-21.00390625 17.328125 -21.00390625 17.328125 -19.00390625 16.328125 C-18.67390625 15.338125 -18.34390625 14.348125 -18.00390625 13.328125 C-17.00390625 12.328125 -16.00390625 11.328125 -15.00390625 10.328125 C-14.67390625 9.338125 -14.34390625 8.348125 -14.00390625 7.328125 C-12.3805082 5.61928495 -10.71071572 3.95365783 -9.00390625 2.328125 C-8.35421875 1.4 -8.35421875 1.4 -7.69140625 0.453125 C-5.13656384 -1.25010328 -2.895546 -0.48878942 0 0 Z M-13.77734375 11.37109375 C-15.40414931 13.96672938 -15.85572299 16.29036807 -16.00390625 19.328125 C-15.67390625 19.328125 -15.34390625 19.328125 -15.00390625 19.328125 C-14.34390625 22.298125 -13.68390625 25.268125 -13.00390625 28.328125 C-12.34390625 28.328125 -11.68390625 28.328125 -11.00390625 28.328125 C-11.00390625 28.988125 -11.00390625 29.648125 -11.00390625 30.328125 C-9.12074466 31.43648923 -9.12074466 31.43648923 -7.00390625 32.328125 C-6.34390625 31.998125 -5.68390625 31.668125 -5.00390625 31.328125 C-4.67390625 31.988125 -4.34390625 32.648125 -4.00390625 33.328125 C-0.2994075 33.50862205 -0.2994075 33.50862205 1.99609375 32.765625 C4.3225475 32.25671324 5.75323623 32.60720651 7.99609375 33.328125 C8.82109375 32.4 9.64609375 31.471875 10.49609375 30.515625 C10.96015625 29.99355469 11.42421875 29.47148438 11.90234375 28.93359375 C13.27760616 27.238677 13.27760616 27.238677 12.99609375 24.328125 C13.98609375 23.998125 14.97609375 23.668125 15.99609375 23.328125 C15.99609375 21.678125 15.99609375 20.028125 15.99609375 18.328125 C15.33609375 17.998125 14.67609375 17.668125 13.99609375 17.328125 C13.33609375 18.648125 12.67609375 19.968125 11.99609375 21.328125 C11.33609375 18.028125 10.67609375 14.728125 9.99609375 11.328125 C8.67609375 10.998125 7.35609375 10.668125 5.99609375 10.328125 C5.66609375 9.338125 5.33609375 8.348125 4.99609375 7.328125 C2.76835268 7.05633088 0.54181139 6.80144676 -1.69140625 6.578125 C-4.00390625 6.328125 -4.00390625 6.328125 -6.69140625 5.828125 C-10.13948452 6.57365544 -11.63023559 8.66793963 -13.77734375 11.37109375 Z " fill="#4B96A8" transform="translate(80.00390625,41.671875)"/>
<path d="M0 0 C2.0625 0.4375 2.0625 0.4375 4 1 C4.625 2.8125 4.625 2.8125 5 5 C4.01 6.485 4.01 6.485 3 8 C3.66 8 4.32 8 5 8 C5.99 10.64 6.98 13.28 8 16 C8.66 16 9.32 16 10 16 C10 16.66 10 17.32 10 18 C10.66 18.33 11.32 18.66 12 19 C12 19.66 12 20.32 12 21 C14.30611761 24.03436527 16.36731679 24.33082151 20 25 C20.33 25.66 20.66 26.32 21 27 C21.66 27.33 22.32 27.66 23 28 C23 29.32 23 30.64 23 32 C23.763125 31.95875 24.52625 31.9175 25.3125 31.875 C28 32 28 32 31 34 C31.66 34 32.32 34 33 34 C33 34.66 33 35.32 33 36 C32.34 36 31.68 36 31 36 C31 36.99 31 37.98 31 39 C32.93736701 39.16820551 34.87489906 39.33451095 36.8125 39.5 C37.89144531 39.5928125 38.97039063 39.685625 40.08203125 39.78125 C43.01090811 40.03737838 43.01090811 40.03737838 46 40 C46 40.66 46 41.32 46 42 C46.99 42.33 47.98 42.66 49 43 C49 43.99 49 44.98 49 46 C56.32586686 48.313913 63.29895895 48.26368492 70.9375 48.1875 C72.77344727 48.1865332 72.77344727 48.1865332 74.64648438 48.18554688 C81.17701051 48.15393056 87.52732577 47.87279858 94 47 C89.33544789 51.66455211 81.0948867 51.28087118 74.84399414 51.38085938 C54.87424774 51.34060117 35.22542678 46.8649799 20 33 C19.27151855 32.34088623 19.27151855 32.34088623 18.52832031 31.66845703 C10.26440821 24.09361297 0.98063771 15.38979897 -1 3.8125 C-1 1 -1 1 0 0 Z M44 42 C44.33 42.66 44.66 43.32 45 44 C45.33 43.34 45.66 42.68 46 42 C45.34 42 44.68 42 44 42 Z " fill="#1B2E85" transform="translate(7,106)"/>
<path d="M0 0 C3.24812693 0.84648156 4.88992576 2.9648036 6.93359375 5.50390625 C7.26359375 5.83390625 7.59359375 6.16390625 7.93359375 6.50390625 C8.30859375 9.75390625 8.30859375 9.75390625 7.93359375 13.50390625 C4.98022423 17.07903777 2.81354256 19.24754959 -1.81640625 19.87890625 C-5.29271262 19.47779398 -7.33585137 18.59028425 -9.921875 16.1953125 C-11.80038896 13.41921508 -11.82443464 10.94271744 -11.578125 7.6640625 C-10.12917406 1.54749862 -5.76557746 -0.33786938 0 0 Z " fill="#F0B652" transform="translate(81.06640625,49.49609375)"/>
<path d="M0 0 C4.27964106 -0.53890163 8.2815468 -1.01766272 12.10253906 1.24511719 C14.08294245 3.02531305 15.85756414 4.88333898 17.625 6.875 C18.26381104 7.55377197 18.90262207 8.23254395 19.56079102 8.93188477 C24.32239603 14.05198783 28.8523809 19.36824883 33 25 C32.01 25.495 32.01 25.495 31 26 C31 26.99 31 27.98 31 29 C30.01 29.66 29.02 30.32 28 31 C27.16998623 34.77278987 26.97636716 38.34741067 27.0625 42.1875 C27.00337666 45.79402363 26.68955935 47.01179896 25 50 C25.00636475 49.25427734 25.01272949 48.50855469 25.01928711 47.74023438 C25.02802976 44.32583017 24.98319181 40.91409229 24.9375 37.5 C24.94845703 36.32695313 24.95941406 35.15390625 24.97070312 33.9453125 C24.85425326 28.02300499 24.6472976 23.96351484 20.64453125 19.3984375 C19.4426361 18.25189595 18.22800597 17.11853065 17 16 C15.89818113 14.72406541 14.81185985 13.43437678 13.75 12.125 C10.00880318 7.60613867 6.79336367 6.65585249 1 6 C0.67 4.02 0.34 2.04 0 0 Z " fill="#1D4C8A" transform="translate(25,76)"/>
<path d="M0 0 C0.33 0 0.66 0 1 0 C1.33 8.91 1.66 17.82 2 27 C0.68 27 -0.64 27 -2 27 C-2 24.69 -2 22.38 -2 20 C-3.32 19.34 -4.64 18.68 -6 18 C-6 23.61 -6 29.22 -6 35 C-7.32 34.67 -8.64 34.34 -10 34 C-9.67 33.01 -9.34 32.02 -9 31 C-8.85426942 29.52034074 -8.75336732 28.03596157 -8.68359375 26.55078125 C-8.64169922 25.70322266 -8.59980469 24.85566406 -8.55664062 23.98242188 C-8.49766602 22.66081055 -8.49766602 22.66081055 -8.4375 21.3125 C-8.39431641 20.41982422 -8.35113281 19.52714844 -8.30664062 18.60742188 C-8.20064647 16.40509892 -8.09857949 14.20266527 -8 12 C-8.66 12 -9.32 12 -10 12 C-10.226875 12.598125 -10.45375 13.19625 -10.6875 13.8125 C-12.37304841 16.62174735 -14.05002192 17.63293699 -17 19 C-17.99 18.67 -18.98 18.34 -20 18 C-16.535 15.525 -16.535 15.525 -13 13 C-13.33 12.01 -13.66 11.02 -14 10 C-13.21625 9.731875 -12.4325 9.46375 -11.625 9.1875 C-8.71885077 8.15185568 -8.71885077 8.15185568 -7 5 C-5.67405895 4.63837971 -4.34061543 4.30271961 -3 4 C-2.67 3.34 -2.34 2.68 -2 2 C-1.34 2 -0.68 2 0 2 C0 1.34 0 0.68 0 0 Z " fill="#1D5A8F" transform="translate(100,96)"/>
<path d="M0 0 C4.40485304 3.35286387 7.03920277 7.41239111 10 12 C11.37430174 13.76695937 12.76882702 15.51846378 14.1875 17.25 C14.82042969 18.04664062 15.45335937 18.84328125 16.10546875 19.6640625 C18.97100669 23.19724124 21.9687174 26.6087526 25 30 C22 30 22 30 19.51953125 27.6640625 C18.60862148 26.65873726 17.70656694 25.64533316 16.8125 24.625 C16.34908203 24.11710937 15.88566406 23.60921875 15.40820312 23.0859375 C12 19.27115933 12 19.27115933 12 17 C11.46375 16.79375 10.9275 16.5875 10.375 16.375 C7.08021991 14.46749574 4.40636372 11.95180616 2 9 C2 8.34 2 7.68 2 7 C-1.12394934 6.63611825 -4.24925082 6.28555397 -7.375 5.9375 C-8.26445312 5.83373047 -9.15390625 5.72996094 -10.0703125 5.62304688 C-11.34648437 5.48286133 -11.34648437 5.48286133 -12.6484375 5.33984375 C-13.43395996 5.25081787 -14.21948242 5.16179199 -15.02880859 5.07006836 C-17.07840932 4.83974435 -17.07840932 4.83974435 -19 6 C-19.66 4.68 -20.32 3.36 -21 2 C-15.26903762 -1.63060967 -6.45711986 -1.7597697 0 0 Z " fill="#1E508B" transform="translate(35,68)"/>
<path d="M0 0 C2.9375 0.75 2.9375 0.75 6 2 C6.88671875 3.76953125 6.88671875 3.76953125 7 6 C3.98850797 11.75176274 -0.38092115 16.49935907 -5 21 C-6.60007015 23.11352549 -8.14700734 25.25469913 -9.66796875 27.42578125 C-10.10753906 27.94527344 -10.54710938 28.46476562 -11 29 C-11.66 29 -12.32 29 -13 29 C-13.18175781 29.60328125 -13.36351563 30.2065625 -13.55078125 30.828125 C-14.90233381 35.12536903 -16.12753448 38.4747014 -19 42 C-19.11214844 42.62261719 -19.22429687 43.24523437 -19.33984375 43.88671875 C-20.22037235 46.7054523 -21.64574343 47.67654088 -23.9375 49.5 C-26.87685345 51.8472151 -28.38034248 53.63556121 -30 57 C-32.625 58.75 -32.625 58.75 -35 60 C-34.13391982 55.55316145 -31.61722889 52.87881666 -28.6875 49.5625 C-27.71165542 48.43930935 -26.73638601 47.31561869 -25.76171875 46.19140625 C-25.05752808 45.37929687 -25.05752808 45.37929687 -24.33911133 44.55078125 C-20.08974172 39.68188159 -20.08974172 39.68188159 -17.4375 33.875 C-16.46255026 30.76242755 -15.31105583 29.26814498 -13 27 C-12.67 26.01 -12.34 25.02 -12 24 C-11.34 23.67 -10.68 23.34 -10 23 C-9.53476937 21.10466658 -9.53476937 21.10466658 -9.375 18.9375 C-9.25125 17.638125 -9.1275 16.33875 -9 15 C-8.34 15 -7.68 15 -7 15 C-7 16.32 -7 17.64 -7 19 C-6.34 18.01 -5.68 17.02 -5 16 C-4.01 16 -3.02 16 -2 16 C-2 15.01 -2 14.02 -2 13 C-1 12 0 11 1 10 C2.49439113 7.6807393 2.49439113 7.6807393 3 5 C1.73666727 2.19832713 1.73666727 2.19832713 0 0 Z " fill="#3A8CA4" transform="translate(105,42)"/>
<path d="M0 0 C0.66 0 1.32 0 2 0 C2.33 1.65 2.66 3.3 3 5 C3.33 5 3.66 5 4 5 C4.33 8.3 4.66 11.6 5 15 C5.66 15 6.32 15 7 15 C7 15.66 7 16.32 7 17 C10.05847848 17.54372951 12.88772805 18 16 18 C16 18.66 16 19.32 16 20 C16.9075 19.62875 17.815 19.2575 18.75 18.875 C22 18 22 18 24.375 18.875 C24.91125 19.24625 25.4475 19.6175 26 20 C24.04328185 22.50025097 23.15521003 22.97465959 19.9375 23.5 C18.4834375 23.7475 18.4834375 23.7475 17 24 C16.34 24.99 15.68 25.98 15 27 C14.67 26.01 14.34 25.02 14 24 C12.35 24 10.7 24 9 24 C8.773125 23.443125 8.54625 22.88625 8.3125 22.3125 C6.62971908 19.34760028 4.43891488 17.383485 2 15 C0.85657588 13.83022971 -0.26826427 12.64204028 -1.375 11.4375 C-1.89835937 10.87933594 -2.42171875 10.32117188 -2.9609375 9.74609375 C-4 8 -4 8 -3.7890625 5.84765625 C-3 4 -3 4 -1 3 C-0.67 2.01 -0.34 1.02 0 0 Z " fill="#43739C" transform="translate(62,55)"/>
<path d="M0 0 C1.44926837 4.45552099 0.1032744 6.86856813 -2 11 C-3.5625 12.9375 -3.5625 12.9375 -5 14 C-5.66 14 -6.32 14 -7 14 C-7.33 15.65 -7.66 17.3 -8 19 C-8.66 19 -9.32 19 -10 19 C-11.00005304 22.00015912 -11.11575585 23.97423756 -11.09765625 27.10546875 C-11.09443359 28.08837891 -11.09121094 29.07128906 -11.08789062 30.08398438 C-11.07951172 31.10814453 -11.07113281 32.13230469 -11.0625 33.1875 C-11.05798828 34.22326172 -11.05347656 35.25902344 -11.04882812 36.32617188 C-11.0370401 38.88417266 -11.02058515 41.44205733 -11 44 C-10.39671875 43.84402344 -9.7934375 43.68804687 -9.171875 43.52734375 C-7.97304687 43.23537109 -7.97304687 43.23537109 -6.75 42.9375 C-5.56664063 42.64166016 -5.56664063 42.64166016 -4.359375 42.33984375 C-1.89605178 41.98502733 -0.34395868 42.23122456 2 43 C-1.52679099 45.35119399 -3.02879485 45.21443452 -7.1875 45.125 C-8.27417969 45.10695312 -9.36085938 45.08890625 -10.48046875 45.0703125 C-11.31191406 45.04710937 -12.14335938 45.02390625 -13 45 C-13.17445227 40.87449131 -13.30070887 36.75044004 -13.38452148 32.62207031 C-13.41949242 31.22129884 -13.46709032 29.82077858 -13.52807617 28.42089844 C-14.08482925 15.30211157 -14.08482925 15.30211157 -9.6875 10.28125 C-8.47548839 9.16852019 -7.24635292 8.07412483 -6 7 C-4.83360201 5.68461886 -3.68652949 4.35176533 -2.5625 3 C-1.716875 2.01 -0.87125 1.02 0 0 Z " fill="#239AAB" transform="translate(120,81)"/>
<path d="M0 0 C-0.33 0.66 -0.66 1.32 -1 2 C-1.15495763 4.24974161 -1.25010928 6.50371536 -1.31640625 8.7578125 C-1.33718735 9.42086395 -1.35796844 10.08391541 -1.37937927 10.76705933 C-1.44479231 12.88626694 -1.50372105 15.005599 -1.5625 17.125 C-1.60569309 18.56121081 -1.64930764 19.99740902 -1.69335938 21.43359375 C-1.80046499 24.95559594 -1.90175575 28.47773825 -2 32 C-5.18572411 29.10388717 -6.85497235 26.69729129 -7.22705078 22.34277344 C-7.21657715 21.35825195 -7.20610352 20.37373047 -7.1953125 19.359375 C-7.18886719 18.28945312 -7.18242188 17.21953125 -7.17578125 16.1171875 C-7.15902344 15.00601563 -7.14226562 13.89484375 -7.125 12.75 C-7.11597656 11.62335938 -7.10695313 10.49671875 -7.09765625 9.3359375 C-7.07410658 6.55707635 -7.0412168 3.7786461 -7 1 C-3.375 -1.125 -3.375 -1.125 0 0 Z " fill="#1D598E" transform="translate(108,94)"/>
<path d="M0 0 C3.89184452 -0.10059445 7.78316254 -0.17225841 11.67602539 -0.21972656 C13.63389776 -0.24919327 15.59141099 -0.30007758 17.54882812 -0.3515625 C29.52382917 -0.47344546 39.5356292 2.25485525 50 8 C50 8.66 50 9.32 50 10 C45.38225105 10.18108819 42.22569972 9.81101416 38 8 C37.34 8.33 36.68 8.66 36 9 C35.505 8.01 35.505 8.01 35 7 C32.97536745 6.34786708 32.97536745 6.34786708 31 6 C31 5.34 31 4.68 31 4 C29.68 4.33 28.36 4.66 27 5 C27 4.34 27 3.68 27 3 C26.01 3.33 25.02 3.66 24 4 C23.23429687 3.69191406 22.46859375 3.38382812 21.6796875 3.06640625 C18.60331274 1.84213466 16.41932081 1.83054153 13.125 1.9375 C8.59575589 2.02137489 4.45070831 1.80921969 0 1 C0 0.67 0 0.34 0 0 Z " fill="#278D89" transform="translate(67,0)"/>
<path d="M0 0 C0.94746094 0.00386719 1.89492187 0.00773437 2.87109375 0.01171875 C5.56839177 0.31315844 7.24735928 0.93874037 9.5625 2.3125 C9.5625 2.9725 9.5625 3.6325 9.5625 4.3125 C8.5725 3.9825 7.5825 3.6525 6.5625 3.3125 C4.60572445 3.15495296 4.60572445 3.15495296 2.5625 3.1875 C1.881875 3.18492188 1.20125 3.18234375 0.5 3.1796875 C-1.65624781 3.24618874 -1.65624781 3.24618874 -4.4375 4.3125 C-5.78690922 8.36072767 -6.13345879 12.08492051 -5.4375 16.3125 C-3.12493996 19.37974457 -3.12493996 19.37974457 -0.4375 21.3125 C-2.7475 20.9825 -5.0575 20.6525 -7.4375 20.3125 C-7.4375 20.9725 -7.4375 21.6325 -7.4375 22.3125 C-8.0975 22.3125 -8.7575 22.3125 -9.4375 22.3125 C-9.57027344 21.70921875 -9.70304687 21.1059375 -9.83984375 20.484375 C-10.01644531 19.68515625 -10.19304687 18.8859375 -10.375 18.0625 C-10.54902344 17.27359375 -10.72304687 16.4846875 -10.90234375 15.671875 C-11.39579581 13.33701256 -11.39579581 13.33701256 -12.11328125 11.20703125 C-12.4375 9.3125 -12.4375 9.3125 -10.6875 6.25 C-5.82161143 -0.10268785 -5.82161143 -0.10268785 0 0 Z " fill="#5D8199" transform="translate(76.4375,47.6875)"/>
<path d="M0 0 C0.66 0 1.32 0 2 0 C4 3 4 3 4 6 C3.34 6 2.68 6 2 6 C1.566875 6.86625 1.566875 6.86625 1.125 7.75 C0.08333333 9.83333333 -0.95833333 11.91666667 -2 14 C-2.66 14 -3.32 14 -4 14 C-4.433125 14.928125 -4.433125 14.928125 -4.875 15.875 C-6 18 -6 18 -8 20 C-10.125 19.625 -10.125 19.625 -12 19 C-12 15.89448334 -11.4606285 14.64738916 -10 12 C-9.34 12 -8.68 12 -8 12 C-7.773125 11.46375 -7.54625 10.9275 -7.3125 10.375 C-6.15149389 8.27413181 -4.97921002 6.6929702 -3.4375 4.875 C-1.03993582 2.27761964 -1.03993582 2.27761964 0 0 Z " fill="#1C71A0" transform="translate(71,79)"/>
<path d="M0 0 C0 3 0 3 -1 5 C-0.01 5 0.98 5 2 5 C0.4467033 8.47064731 -1.6229487 11.22929462 -4 14.1875 C-4.70125 15.06792969 -5.4025 15.94835937 -6.125 16.85546875 C-8 19 -8 19 -10 20 C-10 19.34 -10 18.68 -10 18 C-11.32 18 -12.64 18 -14 18 C-10.90745049 11.4191719 -6.25968806 5.95913446 -1 1 C-0.67 0.67 -0.34 0.34 0 0 Z " fill="#1C7D9D" transform="translate(117,76)"/>
<path d="M0 0 C3.24812693 0.84648156 4.88992576 2.9648036 6.93359375 5.50390625 C7.26359375 5.83390625 7.59359375 6.16390625 7.93359375 6.50390625 C8.30859375 9.75390625 8.30859375 9.75390625 7.93359375 13.50390625 C4.98022423 17.07903777 2.81354256 19.24754959 -1.81640625 19.87890625 C-5.29271262 19.47779398 -7.33585137 18.59028425 -9.921875 16.1953125 C-11.80038896 13.41921508 -11.82443464 10.94271744 -11.578125 7.6640625 C-10.12917406 1.54749862 -5.76557746 -0.33786938 0 0 Z M-8.56640625 4.56640625 C-10.53241806 8.41651271 -10.28359116 10.39590717 -9.06640625 14.50390625 C-6.83414728 17.06687025 -5.48589256 17.44142956 -2.12890625 17.94140625 C1.7729969 17.38399151 3.34333106 16.47508993 5.93359375 13.50390625 C6.60182825 8.76704036 6.60182825 8.76704036 4.55859375 4.62890625 C0.1833302 1.59987764 -4.32473525 1.06702767 -8.56640625 4.56640625 Z " fill="#E7DA96" transform="translate(81.06640625,49.49609375)"/>
<path d="M0 0 C1.65 0.33 3.3 0.66 5 1 C5.66 2.98 6.32 4.96 7 7 C7.66 7 8.32 7 9 7 C7.25 10.875 7.25 10.875 5 12 C2.125 12.3125 2.125 12.3125 -1 12 C-3.375 10 -3.375 10 -5 8 C-4.34 8 -3.68 8 -3 8 C-2.67 7.34 -2.34 6.68 -2 6 C-0.68 6.33 0.64 6.66 2 7 C1.484375 6.5875 0.96875 6.175 0.4375 5.75 C-0.036875 5.1725 -0.51125 4.595 -1 4 C-0.6875 1.8125 -0.6875 1.8125 0 0 Z " fill="#E8AA57" transform="translate(77,55)"/>
<path d="M0 0 C0.63019043 0.21366211 1.26038086 0.42732422 1.90966797 0.64746094 C9.75218679 3.07164079 16.95754215 3.39006359 25.125 3.25 C26.33542969 3.24484375 27.54585937 3.2396875 28.79296875 3.234375 C35.26844061 3.17800528 41.58102326 2.85586357 48 2 C43.33549866 6.66450134 35.09112527 6.283396 28.84008789 6.37890625 C27.88223389 6.37761719 26.92437988 6.37632812 25.9375 6.375 C24.93904053 6.37628906 23.94058105 6.37757813 22.91186523 6.37890625 C14.16711306 6.25549382 6.28767635 4.69439695 -2 2 C-1.34 1.34 -0.68 0.68 0 0 Z " fill="#253F7D" transform="translate(53,151)"/>
<path d="M0 0 C8.79520212 2.45447501 12.36704273 7.54905841 17 15 C15.35 15.66 13.7 16.32 12 17 C11.67 16.34 11.34 15.68 11 15 C11.66 15 12.32 15 13 15 C10.22220672 11.00692215 8.50473321 8.78866557 3.6875 7.625 C2.470625 7.41875 1.25375 7.2125 0 7 C0 4.69 0 2.38 0 0 Z " fill="#359B95" transform="translate(126,17)"/>
<path d="M0 0 C12.91529904 0.19224396 12.91529904 0.19224396 16.9375 3.1875 C17.9584375 4.5796875 17.9584375 4.5796875 19 6 C20.06596951 6.89607205 21.15131045 7.76936141 22.25 8.625 C28.42180791 13.82231193 33.2140236 20.54801916 38 27 C34.83049959 25.61223053 32.83520662 24.02385383 30.50390625 21.48046875 C29.86259766 20.78759766 29.22128906 20.09472656 28.56054688 19.38085938 C27.90119141 18.65705078 27.24183594 17.93324219 26.5625 17.1875 C24.62237386 15.07949667 22.68071893 12.97347711 20.72583008 10.87915039 C19.2694728 9.29341238 17.86989361 7.65580514 16.484375 6.0078125 C13.11485049 3.28464332 10.95592042 3.4880411 6.6875 3.6875 C4.80611328 3.75517578 4.80611328 3.75517578 2.88671875 3.82421875 C1.93410156 3.88222656 0.98148438 3.94023438 0 4 C0 2.68 0 1.36 0 0 Z " fill="#4672AB" transform="translate(21,73)"/>
<path d="M0 0 C3.04453575 0.03315831 6.08191807 0.10049106 9.125 0.1875 C9.9809375 0.19330078 10.836875 0.19910156 11.71875 0.20507812 C19.22926176 0.46505738 21.83110506 2.69332702 26.9765625 8.0625 C27.52054688 8.701875 28.06453125 9.34125 28.625 10 C29.20636719 10.680625 29.78773437 11.36125 30.38671875 12.0625 C32.29102673 14.34951395 34.16778263 16.65476177 36 19 C35.67 19.66 35.34 20.32 35 21 C34.18015625 20.10796875 33.3603125 19.2159375 32.515625 18.296875 C31.42712808 17.11454214 30.33858392 15.93225277 29.25 14.75 C28.71117188 14.16347656 28.17234375 13.57695313 27.6171875 12.97265625 C26.55849887 11.82359177 25.49185095 10.68180458 24.41699219 9.54785156 C23 8 23 8 21.21875 5.59375 C17.55426061 2.96151114 13.62722926 3.58189371 9.25 3.75 C8.36183594 3.76804687 7.47367188 3.78609375 6.55859375 3.8046875 C4.37129152 3.85172626 2.18620184 3.91742991 0 4 C0 2.68 0 1.36 0 0 Z " fill="#4A85B7" transform="translate(14,81)"/>
<path d="M0 0 C-0.65221589 6.65260203 -2.34477128 10.34477128 -7 15 C-7.33 15.99 -7.66 16.98 -8 18 C-8.66 18 -9.32 18 -10 18 C-10 18.66 -10 19.32 -10 20 C-10.99 20.33 -11.98 20.66 -13 21 C-11.65199518 16.95598553 -9.65198433 14.03557577 -7.0234375 10.74609375 C-5.66288669 8.7621693 -5.66288669 8.7621693 -6 5 C-6.61875 4.87625 -7.2375 4.7525 -7.875 4.625 C-10 4 -10 4 -12 2 C-7.8803623 0.70756464 -4.33168317 -0.26252625 0 0 Z M-15 21 C-14.01 21.495 -14.01 21.495 -13 22 C-13.99 22.495 -13.99 22.495 -15 23 C-15 22.34 -15 21.68 -15 21 Z " fill="#25CDC1" transform="translate(117,39)"/>
<path d="M0 0 C0.99 0.33 1.98 0.66 3 1 C2.01 2.485 2.01 2.485 1 4 C0.72351446 6.81154715 0.72351446 6.81154715 0.8046875 9.98046875 C0.81113281 11.14384766 0.81757812 12.30722656 0.82421875 13.50585938 C0.84097656 14.72080078 0.85773438 15.93574219 0.875 17.1875 C0.88402344 18.41404297 0.89304687 19.64058594 0.90234375 20.90429688 C0.92593983 23.93639295 0.95886159 26.96809938 1 30 C-0.32 29.67 -1.64 29.34 -3 29 C-2.67 28.01 -2.34 27.02 -2 26 C-1.85426942 24.52034074 -1.75336732 23.03596157 -1.68359375 21.55078125 C-1.64169922 20.70322266 -1.59980469 19.85566406 -1.55664062 18.98242188 C-1.49766602 17.66081055 -1.49766602 17.66081055 -1.4375 16.3125 C-1.39431641 15.41982422 -1.35113281 14.52714844 -1.30664062 13.60742188 C-1.20064647 11.40509892 -1.09857949 9.20266527 -1 7 C-1.66 7 -2.32 7 -3 7 C-3.226875 7.598125 -3.45375 8.19625 -3.6875 8.8125 C-5.37304841 11.62174735 -7.05002192 12.63293699 -10 14 C-10.99 13.67 -11.98 13.34 -13 13 C-10.69 11.35 -8.38 9.7 -6 8 C-6.33 7.01 -6.66 6.02 -7 5 C-6.21625 4.731875 -5.4325 4.46375 -4.625 4.1875 C-1.71885077 3.15185568 -1.71885077 3.15185568 0 0 Z " fill="#2B8FB2" transform="translate(93,101)"/>
<path d="M0 0 C2.0625 0.4375 2.0625 0.4375 4 1 C4.625 2.8125 4.625 2.8125 5 5 C4.01 6.485 4.01 6.485 3 8 C3.66 8 4.32 8 5 8 C5.99 10.64 6.98 13.28 8 16 C8.66 16 9.32 16 10 16 C10 16.66 10 17.32 10 18 C10.66 18.33 11.32 18.66 12 19 C12 21 12 21 11 24 C4.84287646 17.27012079 -0.60754969 10.41880734 -1 1 C-0.67 0.67 -0.34 0.34 0 0 Z " fill="#2B3E86" transform="translate(7,106)"/>
<path d="M0 0 C3.02788264 3.02788264 2.96212259 5.95303581 3.11352539 10.13793945 C3.10828857 11.28480225 3.10305176 12.43166504 3.09765625 13.61328125 C3.09443359 14.86044922 3.09121094 16.10761719 3.08789062 17.39257812 C3.07951172 18.68615234 3.07113281 19.97972656 3.0625 21.3125 C3.05798828 22.62541016 3.05347656 23.93832031 3.04882812 25.29101562 C3.03705949 28.5273901 3.0206176 31.76367178 3 35 C2.34 34.67 1.68 34.34 1 34 C1.01160156 32.77023438 1.02320313 31.54046875 1.03515625 30.2734375 C1.04454022 28.64062653 1.05363977 27.0078139 1.0625 25.375 C1.07087891 24.56675781 1.07925781 23.75851563 1.08789062 22.92578125 C1.1058955 18.49658082 0.89622662 14.36116576 0 10 C-0.66 10 -1.32 10 -2 10 C-1.85950482 8.52031676 -1.71245174 7.04125484 -1.5625 5.5625 C-1.48128906 4.73878906 -1.40007812 3.91507813 -1.31640625 3.06640625 C-1 1 -1 1 0 0 Z " fill="#39999F" transform="translate(154,56)"/>
<path d="M0 0 C0.66 0 1.32 0 2 0 C2.33 1.65 2.66 3.3 3 5 C3.33 5 3.66 5 4 5 C4.66 9.29 5.32 13.58 6 18 C6.66 18 7.32 18 8 18 C7.67 18.66 7.34 19.32 7 20 C5.30541393 18.35525469 3.64385754 16.69469849 2 15 C1.43796875 14.4225 0.8759375 13.845 0.296875 13.25 C-0.25484375 12.651875 -0.8065625 12.05375 -1.375 11.4375 C-1.89835937 10.87933594 -2.42171875 10.32117188 -2.9609375 9.74609375 C-4 8 -4 8 -3.7890625 5.84765625 C-3 4 -3 4 -1 3 C-0.67 2.01 -0.34 1.02 0 0 Z " fill="#317B9C" transform="translate(62,55)"/>
<path d="M0 0 C0.33 0.99 0.66 1.98 1 3 C-0.30135125 4.69175663 -1.63755204 6.35704805 -3 8 C-3.12761719 8.64066406 -3.25523438 9.28132813 -3.38671875 9.94140625 C-4.22017484 12.73905821 -5.67445306 13.69938399 -7.9375 15.5 C-10.87685345 17.8472151 -12.38034248 19.63556121 -14 23 C-16.625 24.75 -16.625 24.75 -19 26 C-18.51484896 21.64418743 -15.6600638 18.95322118 -12.875 15.8125 C-11.87488789 14.66007993 -10.87619385 13.50642772 -9.87890625 12.3515625 C-9.38922363 11.78598633 -8.89954102 11.22041016 -8.39501953 10.63769531 C-5.4641306 7.19695276 -2.72754449 3.60259289 0 0 Z " fill="#2DA1B8" transform="translate(89,76)"/>
<path d="M0 0 C1.9375 0.3125 1.9375 0.3125 4 1 C5.71902366 6.15707097 5.5960172 10.43900257 3.6875 15.4375 C2 18 2 18 -1 19 C-2.56118428 19.06740865 -4.1250252 19.08514456 -5.6875 19.0625 C-6.89986328 19.04896484 -6.89986328 19.04896484 -8.13671875 19.03515625 C-8.75160156 19.02355469 -9.36648437 19.01195313 -10 19 C-10 18.34 -10 17.68 -10 17 C-8.7625 16.7525 -7.525 16.505 -6.25 16.25 C-2.47367182 15.27913549 -0.19941601 14.39076635 2 11 C2.45652447 6.73910491 2.33573034 3.64957865 0 0 Z " fill="#709090" transform="translate(86,52)"/>
<path d="M0 0 C4.17316896 3.99476211 7.77365611 8.30119299 11.375 12.8125 C15.80216696 18.31407624 20.26104248 23.76129787 25 29 C22 29 22 29 19.51953125 26.6640625 C18.60862148 25.65873726 17.70656694 24.64533316 16.8125 23.625 C16.34908203 23.11710937 15.88566406 22.60921875 15.40820312 22.0859375 C12 18.27115933 12 18.27115933 12 16 C11.38125 15.7525 10.7625 15.505 10.125 15.25 C7.62223548 13.77778558 7.0059419 12.68251172 6 10 C6 9.34 6 8.68 6 8 C5.34 8 4.68 8 4 8 C1.875 6.25 1.875 6.25 0 4 C0 2.68 0 1.36 0 0 Z " fill="#1D588B" transform="translate(35,69)"/>
<path d="M0 0 C0.66 0 1.32 0 2 0 C2.04947698 3.93265896 2.08575578 7.86519714 2.10986328 11.7980957 C2.12485495 13.79319618 2.15026731 15.78820946 2.17578125 17.78320312 C2.18222656 19.03681641 2.18867188 20.29042969 2.1953125 21.58203125 C2.20578613 22.73936768 2.21625977 23.8967041 2.22705078 25.08911133 C2 28 2 28 0 31 C0 23.08 0 15.16 0 7 C-1.32 7 -2.64 7 -4 7 C-4 6.34 -4 5.68 -4 5 C-3.34 5 -2.68 5 -2 5 C-1.34 3.35 -0.68 1.7 0 0 Z " fill="#2DB2BF" transform="translate(127,80)"/>
<path d="M0 0 C1.58294782 -0.05437607 3.16644256 -0.09296271 4.75 -0.125 C5.63171875 -0.14820313 6.5134375 -0.17140625 7.421875 -0.1953125 C10.1135858 0.00860498 11.69904974 0.63448279 14 2 C14 2.66 14 3.32 14 4 C13.01 3.67 12.02 3.34 11 3 C9.04322445 2.84245296 9.04322445 2.84245296 7 2.875 C6.319375 2.87242188 5.63875 2.86984375 4.9375 2.8671875 C2.78125219 2.93368874 2.78125219 2.93368874 0 4 C-1.34940922 8.04822767 -1.69595879 11.77242051 -1 16 C1.31256004 19.06724457 1.31256004 19.06724457 4 21 C1.625 21.125 1.625 21.125 -1 21 C-3 19 -3 19 -3.1953125 15.5234375 C-3.18201493 14.14049032 -3.15816232 12.75761346 -3.125 11.375 C-3.11597656 10.66859375 -3.10695313 9.9621875 -3.09765625 9.234375 C-3.07407603 7.48943902 -3.03820461 5.74467705 -3 4 C-2.34 3.67 -1.68 3.34 -1 3 C-0.67 2.01 -0.34 1.02 0 0 Z " fill="#75988E" transform="translate(72,48)"/>
<path d="M0 0 C1.68839378 0.60954791 3.35533184 1.28077203 5 2 C6.35886391 4.91185125 5.96392528 7.00112135 5 10 C6.32 10.33 7.64 10.66 9 11 C7.576875 11.433125 7.576875 11.433125 6.125 11.875 C2.94788422 12.76825109 2.94788422 12.76825109 1 15 C0 14 0 14 -0.09765625 10.83984375 C-0.08025391 8.90818359 -0.08025391 8.90818359 -0.0625 6.9375 C-0.05347656 5.64714844 -0.04445313 4.35679688 -0.03515625 3.02734375 C-0.02355469 2.02832031 -0.01195313 1.02929688 0 0 Z " fill="#204C87" transform="translate(93,113)"/>
<path d="M0 0 C1.32 0.66 2.64 1.32 4 2 C4 2.99 4 3.98 4 5 C4.99 5.33 5.98 5.66 7 6 C6.34 6 5.68 6 5 6 C4.855625 6.61875 4.71125 7.2375 4.5625 7.875 C4 10 4 10 3 12 C2.92907158 14.2072923 2.91584975 16.41667452 2.9375 18.625 C2.95103516 20.40777344 2.95103516 20.40777344 2.96484375 22.2265625 C2.97644531 23.14179687 2.98804688 24.05703125 3 25 C2.34 25.33 1.68 25.66 1 26 C0.63470654 22.41770965 0.28470822 18.83408482 -0.0625 15.25 C-0.16626953 14.23421875 -0.27003906 13.2184375 -0.37695312 12.171875 C-0.47041016 11.1921875 -0.56386719 10.2125 -0.66015625 9.203125 C-0.74918213 8.30239258 -0.83820801 7.40166016 -0.92993164 6.47363281 C-0.99764521 4.08313137 -0.7068821 2.27129331 0 0 Z " fill="#18B4AC" transform="translate(135,28)"/>
<path d="M0 0 C-0.598125 0.28875 -1.19625 0.5775 -1.8125 0.875 C-4.19327792 2.04742026 -4.19327792 2.04742026 -7 4 C-7.66 3.67 -8.32 3.34 -9 3 C-9 3.99 -9 4.98 -9 6 C-13.455 6.495 -13.455 6.495 -18 7 C-19.24546405 4.50907189 -18.7767578 3.58919267 -18 1 C-16.14375 1.0309375 -16.14375 1.0309375 -14.25 1.0625 C-9.38215986 1.07104007 -4.90979552 -0.11158626 0 0 Z " fill="#22879C" transform="translate(68,2)"/>
<path d="M0 0 C0.33 0 0.66 0 1 0 C1.33 8.91 1.66 17.82 2 27 C0.68 27 -0.64 27 -2 27 C-2 18.75 -2 10.5 -2 2 C-1.34 2 -0.68 2 0 2 C0 1.34 0 0.68 0 0 Z " fill="#4C7BB0" transform="translate(100,96)"/>
<path d="M0 0 C0.99 0.33 1.98 0.66 3 1 C-2.96583144 13.85421412 -2.96583144 13.85421412 -8 18 C-8 16.35 -8 14.7 -8 13 C-7.01 13 -6.02 13 -5 13 C-4.24572703 8.02093741 -4.24572703 8.02093741 -4 3 C-2.1875 1.25 -2.1875 1.25 0 0 Z " fill="#2D647D" transform="translate(149,109)"/>
<path d="M0 0 C1.36125 0.12375 1.36125 0.12375 2.75 0.25 C2.625 2.0625 2.625 2.0625 1.75 4.25 C-1.81700675 6.43884505 -5.11894386 7.64249174 -9.25 8.25 C-10.24 5.94 -11.23 3.63 -12.25 1.25 C-10.3125 1.625 -10.3125 1.625 -8.25 2.25 C-7.92 2.91 -7.59 3.57 -7.25 4.25 C-6.71375 3.59 -6.1775 2.93 -5.625 2.25 C-3.25 0.25 -3.25 0.25 0 0 Z " fill="#2D6C9B" transform="translate(84.25,76.75)"/>
<path d="M0 0 C0.66 0 1.32 0 2 0 C4 3 4 3 4 6 C3.34 6 2.68 6 2 6 C1.7525 6.639375 1.505 7.27875 1.25 7.9375 C0 10 0 10 -1.875 10.8125 C-4.17030283 11.01502672 -5.81733924 10.70156953 -8 10 C-5.78453223 7.1733687 -3.53644666 4.53644666 -1 2 C-0.67 1.34 -0.34 0.68 0 0 Z " fill="#1B89A7" transform="translate(71,79)"/>
<path d="M0 0 C0.99 0 1.98 0 3 0 C6 3.33333333 6 3.33333333 6 6 C6.66 6 7.32 6 8 6 C8 6.99 8 7.98 8 9 C8.99 9 9.98 9 11 9 C11.66 10.32 12.32 11.64 13 13 C13.99 13 14.98 13 16 13 C16.66 14.65 17.32 16.3 18 18 C14 18 14 18 11.30859375 15.33203125 C10.33947322 14.16882074 9.38283331 12.99512345 8.4375 11.8125 C7.95603516 11.23435547 7.47457031 10.65621094 6.97851562 10.06054688 C4.34402175 6.8534945 2.03231055 3.63352493 0 0 Z " fill="#2784AC" transform="translate(42,77)"/>
<path d="M0 0 C0.66 0.33 1.32 0.66 2 1 C2 2.65 2 4.3 2 6 C1.01 6.33 0.02 6.66 -1 7 C-1.12375 7.5775 -1.2475 8.155 -1.375 8.75 C-2.29697411 12.06910681 -4.51797119 13.70889648 -7 16 C-7 11.49726263 -5.99845839 8.99691678 -4 5 C-3.01 4.34 -2.02 3.68 -1 3 C-0.67 2.01 -0.34 1.02 0 0 Z " fill="#5187A3" transform="translate(94,59)"/>
<path d="M0 0 C0.33 0 0.66 0 1 0 C1.33 6.93 1.66 13.86 2 21 C6.455 20.01 6.455 20.01 11 19 C12.32 19.33 13.64 19.66 15 20 C10.25368713 23.16420858 5.63243123 22.12112755 0 22 C0 14.74 0 7.48 0 0 Z " fill="#3194B6" transform="translate(107,104)"/>
<path d="M0 0 C2.5625 2 2.5625 2 4 4 C3.67 4.99 3.34 5.98 3 7 C0.625 6.6875 0.625 6.6875 -2 6 C-2.66 5.01 -3.32 4.02 -4 3 C-4.78375 3.185625 -5.5675 3.37125 -6.375 3.5625 C-9 4 -9 4 -11 3 C-11 2.34 -11 1.68 -11 1 C-7.55789151 -0.72105424 -3.76366353 -0.51474617 0 0 Z " fill="#27B0BE" transform="translate(47,50)"/>
<path d="M0 0 C0.33 0 0.66 0 1 0 C1.33186393 4.12665578 0.69566647 6.02744204 -1.875 9.25 C-2.40867187 9.93578125 -2.94234375 10.6215625 -3.4921875 11.328125 C-5 13 -5 13 -7 14 C-7.66 13.34 -8.32 12.68 -9 12 C-7.68858144 10.18671738 -6.37583526 8.37439486 -5.0625 6.5625 C-3.96615234 5.04849609 -3.96615234 5.04849609 -2.84765625 3.50390625 C-1 1 -1 1 0 0 Z " fill="#224A66" transform="translate(19,25)"/>
<path d="M0 0 C3.85402129 -0.08770383 7.70778291 -0.14062735 11.5625 -0.1875 C12.64853516 -0.21263672 13.73457031 -0.23777344 14.85351562 -0.26367188 C21.04846255 -0.32016075 25.53039208 0.01015694 31 3 C29.02 3.99 29.02 3.99 27 5 C27 4.34 27 3.68 27 3 C26.01 3.33 25.02 3.66 24 4 C23.23429687 3.69191406 22.46859375 3.38382812 21.6796875 3.06640625 C18.60331274 1.84213466 16.41932081 1.83054153 13.125 1.9375 C8.59575589 2.02137489 4.45070831 1.80921969 0 1 C0 0.67 0 0.34 0 0 Z " fill="#50ADAE" transform="translate(67,0)"/>
<path d="M0 0 C0 7.15064308 -5.41848476 12.05447396 -10 17 C-10.625 15.1875 -10.625 15.1875 -11 13 C-10.34 12.01 -9.68 11.02 -9 10 C-8.34 10 -7.68 10 -7 10 C-6.773125 9.46375 -6.54625 8.9275 -6.3125 8.375 C-4.56617944 5.21499137 -2.3597151 2.7323017 0 0 Z " fill="#36B6BD" transform="translate(101,61)"/>
<path d="M0 0 C2.9375 0.75 2.9375 0.75 6 2 C6.90234375 3.7578125 6.90234375 3.7578125 7 6 C5.6015625 8.5078125 5.6015625 8.5078125 3.625 11.125 C1.10022851 14.43206252 1.10022851 14.43206252 -1 18 C-1.66 17.67 -2.32 17.34 -3 17 C-2.41800054 13.62440315 -1.37247717 12.37247717 1 10 C2.49439113 7.6807393 2.49439113 7.6807393 3 5 C1.73666727 2.19832713 1.73666727 2.19832713 0 0 Z " fill="#189BA2" transform="translate(105,42)"/>
<path d="M0 0 C-0.36521637 2.55114378 -0.5985714 3.68767354 -2.671875 5.30078125 C-8.33076923 8.05576923 -8.33076923 8.05576923 -12 7.75 C-12.66 7.5025 -13.32 7.255 -14 7 C-10.33997803 3.94998169 -4.92148529 0 0 0 Z " fill="#245F6B" transform="translate(50,4)"/>
<path d="M0 0 C0.99 0.33 1.98 0.66 3 1 C2.71682074 2.60568666 2.42312209 4.20952047 2.125 5.8125 C1.96257812 6.70582031 1.80015625 7.59914063 1.6328125 8.51953125 C1 11 1 11 -1 14 C-3.21175079 8.9621232 -2.90880287 6.12362874 -1 1 C-0.67 0.67 -0.34 0.34 0 0 Z " fill="#316F83" transform="translate(153,95)"/>
<path d="M0 0 C3.79588866 0.54226981 5.47211993 2.20127563 8 5 C5.07120629 4.37240135 2.63904371 3.41377341 0 2 C-0.24492187 2.56203125 -0.48984375 3.1240625 -0.7421875 3.703125 C-2.22926539 6.41865854 -4.04062782 8.46391438 -6.125 10.75 C-7.21167969 11.94882813 -7.21167969 11.94882813 -8.3203125 13.171875 C-8.87460938 13.77515625 -9.42890625 14.3784375 -10 15 C-10.66 14.67 -11.32 14.34 -12 14 C-11.46890625 13.40832031 -10.9378125 12.81664063 -10.390625 12.20703125 C-6.82185937 8.21496312 -3.27989772 4.23653455 0 0 Z " fill="#199CA7" transform="translate(129,61)"/>
<path d="M0 0 C3.3 0 6.6 0 10 0 C10.33 1.32 10.66 2.64 11 4 C7.25 5.125 7.25 5.125 5 4 C5 3.34 5 2.68 5 2 C4.34 2 3.68 2 3 2 C3 3.32 3 4.64 3 6 C2.34 6 1.68 6 1 6 C0.67 4.02 0.34 2.04 0 0 Z " fill="#1C5188" transform="translate(25,76)"/>
<path d="M0 0 C0.66 0 1.32 0 2 0 C2.75 2.6875 2.75 2.6875 3 6 C1.1875 8.875 1.1875 8.875 -1 11 C-1.66 11 -2.32 11 -3 11 C-4 8 -4 8 -3.22265625 5.95703125 C-2.83980469 5.24933594 -2.45695313 4.54164062 -2.0625 3.8125 C-1.68222656 3.09707031 -1.30195312 2.38164063 -0.91015625 1.64453125 C-0.60980469 1.10183594 -0.30945313 0.55914062 0 0 Z " fill="#224D79" transform="translate(9,39)"/>
<path d="M0 0 C0.66 0 1.32 0 2 0 C0.59808647 2.99254618 -1.03367489 5.5954611 -3 8.25 C-3.515625 8.95640625 -4.03125 9.6628125 -4.5625 10.390625 C-5.036875 10.92171875 -5.51125 11.4528125 -6 12 C-6.66 12 -7.32 12 -8 12 C-8.33 12.99 -8.66 13.98 -9 15 C-9.99 14.67 -10.98 14.34 -12 14 C-11.55269531 13.49210937 -11.10539062 12.98421875 -10.64453125 12.4609375 C-10.03996094 11.77257812 -9.43539062 11.08421875 -8.8125 10.375 C-8.17570312 9.65054688 -7.53890625 8.92609375 -6.8828125 8.1796875 C-5.2734359 6.31655028 -3.7239969 4.42292127 -2.1875 2.5 C-1.465625 1.675 -0.74375 0.85 0 0 Z " fill="#2AA0B8" transform="translate(106,86)"/>
<path d="M0 0 C4.57500246 -0.17941186 7.90663943 -0.09784729 12 2 C14.01953125 4.1640625 14.01953125 4.1640625 15.8125 6.625 C16.41707031 7.44226562 17.02164063 8.25953125 17.64453125 9.1015625 C18.09183594 9.72804688 18.53914063 10.35453125 19 11 C18.67 11.66 18.34 12.32 18 13 C17.278125 12.0925 16.55625 11.185 15.8125 10.25 C11.99845688 5.75601604 9.22388751 2.93960295 3.1875 2.25 C1.7927696 2.14988885 0.39699314 2.06087116 -1 2 C-0.67 1.34 -0.34 0.68 0 0 Z " fill="#147B99" transform="translate(39,48)"/>
<path d="M0 0 C0.66 0 1.32 0 2 0 C2 0.66 2 1.32 2 2 C3.32 2.33 4.64 2.66 6 3 C6.33 2.34 6.66 1.68 7 1 C7.99 1 8.98 1 10 1 C10.66 1.99 11.32 2.98 12 4 C10.68 4.99 9.36 5.98 8 7 C7.01 6.34 6.02 5.68 5 5 C3.34450469 4.61500109 1.6777567 4.27206865 0 4 C0 2.68 0 1.36 0 0 Z " fill="#265C95" transform="translate(28,78)"/>
<path d="M0 0 C1.36959468 3.11271517 0.90994332 4.25666155 -0.25 7.5625 C-2.63878327 12.25475285 -2.63878327 12.25475285 -5 14 C-5.66 14 -6.32 14 -7 14 C-7 13.34 -7 12.68 -7 12 C-6.34 12 -5.68 12 -5 12 C-4.89042969 11.38511719 -4.78085938 10.77023438 -4.66796875 10.13671875 C-4.50941406 9.32847656 -4.35085937 8.52023438 -4.1875 7.6875 C-4.03667969 6.88699219 -3.88585937 6.08648437 -3.73046875 5.26171875 C-2.92427764 2.76554413 -1.97947998 1.67577894 0 0 Z " fill="#21A4AA" transform="translate(120,81)"/>
<path d="M0 0 C1.051875 0.99 1.051875 0.99 2.125 2 C5.49827337 4.34662495 6.97749297 4.59909679 11 4 C13.34261608 2.62073227 13.34261608 2.62073227 15 1 C15.66 1.33 16.32 1.66 17 2 C12.33783784 6.81756757 12.33783784 6.81756757 8.25 7.375 C3.77102456 6.85819514 2.2262808 5.07264838 -1 2 C-0.67 1.34 -0.34 0.68 0 0 Z " fill="#E3CD91" transform="translate(71,62)"/>
<path d="M0 0 C0.66 0 1.32 0 2 0 C1.44449305 3.59905908 0.25112752 4.99909799 -2.5625 7.25 C-3.20316406 7.77078125 -3.84382812 8.2915625 -4.50390625 8.828125 C-4.99761719 9.21484375 -5.49132812 9.6015625 -6 10 C-7.04449911 6.86650268 -6.93423645 6.01031744 -6 3 C-4.02 3 -2.04 3 0 3 C0 2.01 0 1.02 0 0 Z " fill="#234C6D" transform="translate(136,129)"/>
<path d="M0 0 C6.93 0.495 6.93 0.495 14 1 C14 1.66 14 2.32 14 3 C9.38 3.33 4.76 3.66 0 4 C0 2.68 0 1.36 0 0 Z " fill="#476EAC" transform="translate(14,81)"/>
<path d="M0 0 C0.78117188 0.19916016 0.78117188 0.19916016 1.578125 0.40234375 C4.93586102 1.23094635 8.31012199 1.36417055 11.75 1.5625 C12.44738281 1.60568359 13.14476562 1.64886719 13.86328125 1.69335938 C15.57531922 1.79889596 17.28763561 1.8998991 19 2 C19 2.33 19 2.66 19 3 C17.96359375 3.06058594 16.9271875 3.12117188 15.859375 3.18359375 C14.48957127 3.26803371 13.11978025 3.35267997 11.75 3.4375 C10.72712891 3.49647461 10.72712891 3.49647461 9.68359375 3.55664062 C6.35551959 3.76666472 3.19744598 4.01934002 0 5 C-0.5625 3.0625 -0.5625 3.0625 -1 1 C-0.67 0.67 -0.34 0.34 0 0 Z " fill="#557EB6" transform="translate(14,65)"/>
<path d="M0 0 C0 0.66 0 1.32 0 2 C-0.61875 2.4125 -1.2375 2.825 -1.875 3.25 C-4.62116292 5.51154594 -5.09886639 7.62074896 -6 11 C-8 9 -8 9 -8.25 6 C-8 3 -8 3 -6 1 C-3.90200436 0.34437636 -2.19959601 0 0 0 Z " fill="#2B7896" transform="translate(35,14)"/>
<path d="M0 0 C4.75 1.875 4.75 1.875 7 3 C6.67 4.65 6.34 6.3 6 8 C4.68 7.67 3.36 7.34 2 7 C2 6.34 2 5.68 2 5 C1.34 5 0.68 5 0 5 C0 3.35 0 1.7 0 0 Z " fill="#2DA49D" transform="translate(118,10)"/>
<path d="M0 0 C-0.33 0.66 -0.66 1.32 -1 2 C-1.56847656 1.98839844 -2.13695313 1.97679687 -2.72265625 1.96484375 C-6.58238155 1.91973845 -10.10788533 2.01712466 -13.9375 2.625 C-14.948125 2.74875 -15.95875 2.8725 -17 3 C-17.66 2.34 -18.32 1.68 -19 1 C-12.33928512 -1.13645572 -6.89836454 -0.93838047 0 0 Z " fill="#2A6669" transform="translate(72,1)"/>
<path d="M0 0 C1 3 1 3 -0.125 5.375 C-2.57643427 8.80700798 -5.17683816 12.08841908 -9 14 C-8.41827275 10.0479482 -6.44842259 7.77904947 -3.9375 4.75 C-3.20402344 3.85796875 -2.47054687 2.9659375 -1.71484375 2.046875 C-1.14894531 1.37140625 -0.58304688 0.6959375 0 0 Z " fill="#298BB1" transform="translate(79,88)"/>
<path d="M0 0 C0.66 0 1.32 0 2 0 C2.33 1.65 2.66 3.3 3 5 C3.33 5 3.66 5 4 5 C4 6.98 4 8.96 4 11 C1.17880386 9.96556141 0.15503802 9.26779294 -1.375 6.625 C-2 4 -2 4 -1.125 1.6875 C-0.75375 1.130625 -0.3825 0.57375 0 0 Z " fill="#477BA0" transform="translate(62,55)"/>
<path d="M0 0 C0.33 0 0.66 0 1 0 C1.33 7.92 1.66 15.84 2 24 C0.68 23.67 -0.64 23.34 -2 23 C-1.505 21.515 -1.505 21.515 -1 20 C-0.8535286 18.44733347 -0.75305926 16.89004338 -0.68359375 15.33203125 C-0.64169922 14.43935547 -0.59980469 13.54667969 -0.55664062 12.62695312 C-0.51732422 11.69818359 -0.47800781 10.76941406 -0.4375 9.8125 C-0.37272461 8.40194336 -0.37272461 8.40194336 -0.30664062 6.96289062 C-0.20061335 4.64207146 -0.09854971 2.32114675 0 0 Z " fill="#5379B5" transform="translate(92,107)"/>
<path d="M0 0 C-0.39803561 2.88575819 -0.79009069 3.82189513 -3.0625 5.75 C-3.701875 6.1625 -4.34125 6.575 -5 7 C-5 6.34 -5 5.68 -5 5 C-6.32 5 -7.64 5 -9 5 C-8.00233891 2.50584728 -7.31383315 1.21259665 -5.0625 -0.3125 C-3 -1 -3 -1 0 0 Z " fill="#1C6F95" transform="translate(112,89)"/>
<path d="M0 0 C0.66 0 1.32 0 2 0 C2.05416188 1.60379341 2.09286638 3.20811406 2.125 4.8125 C2.14820313 5.70582031 2.17140625 6.59914063 2.1953125 7.51953125 C2 10 2 10 0 13 C0 11.02 0 9.04 0 7 C-1.32 7 -2.64 7 -4 7 C-4 6.34 -4 5.68 -4 5 C-3.34 5 -2.68 5 -2 5 C-1.34 3.35 -0.68 1.7 0 0 Z " fill="#28C7C5" transform="translate(127,80)"/>
<path d="M0 0 C0.33 0.99 0.66 1.98 1 3 C0.01 3.33 -0.98 3.66 -2 4 C-2.0825 4.7425 -2.165 5.485 -2.25 6.25 C-3.1396946 9.51221354 -4.48503749 10.80954878 -7 13 C-6.70876501 7.02968261 -3.97185616 4.105466 0 0 Z " fill="#55889E" transform="translate(71,48)"/>
<path d="M0 0 C1.7074998 1.28062485 3.37373596 2.61767557 5 4 C5 4.66 5 5.32 5 6 C5.99 6.33 6.98 6.66 8 7 C8.33 8.98 8.66 10.96 9 13 C8.34 13 7.68 13 7 13 C5.43802705 10.65704057 3.89153541 8.30985802 2.375 5.9375 C1.92898437 5.24527344 1.48296875 4.55304688 1.0234375 3.83984375 C0 2 0 2 0 0 Z " fill="#31A7B9" transform="translate(62,68)"/>
<path d="M0 0 C0.66 0.33 1.32 0.66 2 1 C1.38511719 1.53109375 0.77023438 2.0621875 0.13671875 2.609375 C-0.67152344 3.31578125 -1.47976562 4.0221875 -2.3125 4.75 C-3.51326172 5.79414062 -3.51326172 5.79414062 -4.73828125 6.859375 C-6.77965601 8.79145335 -8.39892851 10.69943126 -10 13 C-8.57324841 5.45859873 -8.57324841 5.45859873 -6.22265625 3.578125 C-5.50980469 3.13984375 -4.79695313 2.7015625 -4.0625 2.25 C-3.35222656 1.80140625 -2.64195313 1.3528125 -1.91015625 0.890625 C-1.27980469 0.59671875 -0.64945313 0.3028125 0 0 Z " fill="#488AA2" transform="translate(74,44)"/>
<path d="M0 0 C0.66 0 1.32 0 2 0 C2 0.66 2 1.32 2 2 C1.34 2 0.68 2 0 2 C0 2.99 0 3.98 0 5 C1.134375 5.268125 2.26875 5.53625 3.4375 5.8125 C4.613125 6.204375 5.78875 6.59625 7 7 C7.33 7.99 7.66 8.98 8 10 C4.51329166 8.8905928 1.22515763 7.73662334 -2 6 C-1.125 1.125 -1.125 1.125 0 0 Z " fill="#253489" transform="translate(38,140)"/>
<path d="M0 0 C0.33 0 0.66 0 1 0 C1.50610724 6.07328688 0.04157942 9.77228537 -3 15 C-3.99 15 -4.98 15 -6 15 C-4.84826645 12.53199953 -3.95216435 10.95216435 -2 9 C-1.32348793 6.80295489 -1.32348793 6.80295489 -0.875 4.375 C-0.62363281 3.14910156 -0.62363281 3.14910156 -0.3671875 1.8984375 C-0.24601562 1.27195312 -0.12484375 0.64546875 0 0 Z " fill="#2CA0B8" transform="translate(128,108)"/>
<path d="M0 0 C0.8125 1.625 0.8125 1.625 1 4 C-1.25 7.25 -1.25 7.25 -4 10 C-4.99 10 -5.98 10 -7 10 C-5.6062718 5.56541027 -3.39417765 3.12621626 0 0 Z " fill="#2288A5" transform="translate(123,71)"/>
<path d="M0 0 C1.98 0.66 3.96 1.32 6 2 C6 2.66 6 3.32 6 4 C6.66 4.33 7.32 4.66 8 5 C8 7 8 7 7 10 C6.01524786 8.90081184 5.03739527 7.7954398 4.0625 6.6875 C3.51722656 6.07261719 2.97195312 5.45773438 2.41015625 4.82421875 C1 3 1 3 0 0 Z " fill="#2D3E89" transform="translate(11,120)"/>
<path d="M0 0 C1.5 1.3125 1.5 1.3125 3 3 C3 3.99 3 4.98 3 6 C2.34 6 1.68 6 1 6 C0.34 7.32 -0.32 8.64 -1 10 C-1.99 10 -2.98 10 -4 10 C-3.34 8.35 -2.68 6.7 -2 5 C-1.34 5 -0.68 5 0 5 C0 3.35 0 1.7 0 0 Z " fill="#2580A6" transform="translate(72,79)"/>
<path d="M0 0 C2 3 2 3 3 6 C2.67 6.66 2.34 7.32 2 8 C1.77141886 10.0374763 1.58975722 12.08040303 1.4375 14.125 C1.35371094 15.22070312 1.26992188 16.31640625 1.18359375 17.4453125 C1.12300781 18.28835937 1.06242188 19.13140625 1 20 C0.67 20 0.34 20 0 20 C0 13.4 0 6.8 0 0 Z " fill="#1F3E7F" transform="translate(0,68)"/>
<path d="M0 0 C2.0625 0.4375 2.0625 0.4375 4 1 C4.33 2.32 4.66 3.64 5 5 C4.01 5.66 3.02 6.32 2 7 C1.34 6.67 0.68 6.34 0 6 C-0.6875 3.5 -0.6875 3.5 -1 1 C-0.67 0.67 -0.34 0.34 0 0 Z " fill="#193385" transform="translate(7,106)"/>
<path d="M0 0 C0.66 0 1.32 0 2 0 C0.82744291 3.33727786 -0.18868404 5.77437487 -3 8 C-3.66 8 -4.32 8 -5 8 C-5.33 8.66 -5.66 9.32 -6 10 C-5.38722388 7.03824877 -4.74627478 5.61941217 -3 3 C-2.34 3 -1.68 3 -1 3 C-0.67 2.01 -0.34 1.02 0 0 Z " fill="#17538F" transform="translate(70,90)"/>
<path d="M0 0 C0.66 0.99 1.32 1.98 2 3 C0.329375 3.2165625 0.329375 3.2165625 -1.375 3.4375 C-4.82142047 3.78372035 -4.82142047 3.78372035 -7 5 C-7.66 3.68 -8.32 2.36 -9 1 C-5.73842267 -0.08719244 -3.41589896 -0.29071481 0 0 Z " fill="#1D4785" transform="translate(23,69)"/>
<path d="M0 0 C0.99 0 1.98 0 3 0 C3.33 2.31 3.66 4.62 4 7 C2.35 6.67 0.7 6.34 -1 6 C-1.042721 4.33388095 -1.04063832 2.66617115 -1 1 C-0.67 0.67 -0.34 0.34 0 0 Z " fill="#F5B347" transform="translate(72,56)"/>
<path d="M0 0 C1 2 1 2 0.22265625 4.3828125 C-0.16019531 5.28773437 -0.54304688 6.19265625 -0.9375 7.125 C-1.31777344 8.03507812 -1.69804688 8.94515625 -2.08984375 9.8828125 C-2.39019531 10.58148438 -2.69054687 11.28015625 -3 12 C-3.33 12 -3.66 12 -4 12 C-4.49230769 4.61538462 -4.49230769 4.61538462 -2 1.5 C-1.34 1.005 -0.68 0.51 0 0 Z " fill="#288CA9" transform="translate(111,92)"/>
<path d="M0 0 C1.9375 0.375 1.9375 0.375 4 1 C4.33 1.66 4.66 2.32 5 3 C7.01669827 4.13350534 7.01669827 4.13350534 9 5 C8.01 5.66 7.02 6.32 6 7 C6 6.34 6 5.68 6 5 C5.071875 5.309375 5.071875 5.309375 4.125 5.625 C3.42375 5.74875 2.7225 5.8725 2 6 C1.34 5.34 0.68 4.68 0 4 C0 2.68 0 1.36 0 0 Z " fill="#527B9C" transform="translate(69,68)"/>
<path d="M0 0 C1.65 0.33 3.3 0.66 5 1 C5.33 1.99 5.66 2.98 6 4 C4.02 4.33 2.04 4.66 0 5 C-0.66 4.01 -1.32 3.02 -2 2 C-1.34 2 -0.68 2 0 2 C0 1.34 0 0.68 0 0 Z " fill="#DE9E43" transform="translate(74,61)"/>
<path d="M0 0 C0.99 0.33 1.98 0.66 3 1 C4.39195915 5.17587745 2.82323219 7.13474776 1 11 C0.67 11 0.34 11 0 11 C0 7.37 0 3.74 0 0 Z " fill="#19A5AA" transform="translate(137,54)"/>
<path d="M0 0 C1.32 0.33 2.64 0.66 4 1 C4 3.31 4 5.62 4 8 C2.68 7.67 1.36 7.34 0 7 C0 4.69 0 2.38 0 0 Z " fill="#1DB3B2" transform="translate(126,17)"/>
<path d="M0 0 C0.66 0.66 1.32 1.32 2 2 C0.9275 2.144375 -0.145 2.28875 -1.25 2.4375 C-3.91662949 2.83749442 -6.41399729 3.27591924 -9 4 C-6.77704343 -0.92226099 -5.22239102 -1.43615753 0 0 Z " fill="#3C8EA9" transform="translate(79,42)"/>
<path d="M0 0 C1.32 0 2.64 0 4 0 C4 0.66 4 1.32 4 2 C3.01 2 2.02 2 1 2 C1 2.66 1 3.32 1 4 C2.32 4.33 3.64 4.66 5 5 C5 5.99 5 6.98 5 8 C3 8 3 8 0.8125 6.25 C0.214375 5.5075 -0.38375 4.765 -1 4 C-0.75 1.75 -0.75 1.75 0 0 Z " fill="#9C753D" transform="translate(77,55)"/>
<path d="M0 0 C0.66 0.33 1.32 0.66 2 1 C0.63016497 4.16115776 0.0109362 4.9927092 -3 7 C-3.66 6.34 -4.32 5.68 -5 5 C-3.35 3.35 -1.7 1.7 0 0 Z " fill="#235279" transform="translate(15,32)"/>
<path d="M0 0 C2.78388975 1.70625501 3.85384206 2.47626739 4.75 5.6875 C4.8325 6.450625 4.915 7.21375 5 8 C1.125 7.125 1.125 7.125 0 6 C-0.04080783 4.00041636 -0.04254356 1.99954746 0 0 Z " fill="#249490" transform="translate(130,18)"/>
<path d="M0 0 C-0.598125 0.28875 -1.19625 0.5775 -1.8125 0.875 C-4.19327792 2.04742026 -4.19327792 2.04742026 -7 4 C-10.625 3.75 -10.625 3.75 -14 3 C-14.33 2.34 -14.66 1.68 -15 1 C-9.9752761 0.37470103 -5.07471573 -0.13012092 0 0 Z " fill="#2799A3" transform="translate(68,2)"/>
<path d="M0 0 C1.60495567 0.11442461 3.20898119 0.24194694 4.8125 0.375 C5.70582031 0.44460937 6.59914063 0.51421875 7.51953125 0.5859375 C10 1 10 1 13 3 C7.52667068 4.46845421 4.88077452 3.44038726 0 1 C0 0.67 0 0.34 0 0 Z " fill="#285B5A" transform="translate(91,0)"/>
<path d="M0 0 C1.00289062 0.28746094 2.00578125 0.57492188 3.0390625 0.87109375 C3.80992188 1.09925781 4.58078125 1.32742187 5.375 1.5625 C5.375 2.2225 5.375 2.8825 5.375 3.5625 C3.76931334 3.27932074 2.16547953 2.98562209 0.5625 2.6875 C-0.33082031 2.52507812 -1.22414063 2.36265625 -2.14453125 2.1953125 C-4.625 1.5625 -4.625 1.5625 -7.625 -0.4375 C-4.72405209 -1.88797396 -3.06527404 -0.89106803 0 0 Z " fill="#2E3E86" transform="translate(58.625,152.4375)"/>
<path d="M0 0 C3.63559661 3.43361902 6.36113346 6.7973607 9 11 C8.01 10.67 7.02 10.34 6 10 C6 9.34 6 8.68 6 8 C5.34 8 4.68 8 4 8 C1.875 6.25 1.875 6.25 0 4 C0 2.68 0 1.36 0 0 Z " fill="#145F8E" transform="translate(35,69)"/>
<path d="M0 0 C0.66 1.32 1.32 2.64 2 4 C2.66 4 3.32 4 4 4 C3.34 5.32 2.68 6.64 2 8 C2 7.01 2 6.02 2 5 C1.01 5.66 0.02 6.32 -1 7 C-1.99 6.67 -2.98 6.34 -4 6 C-3.34 5.67 -2.68 5.34 -2 5 C-1.27840576 3.35636866 -0.60648579 1.68949614 0 0 Z " fill="#32B2B1" transform="translate(148,43)"/>
<path d="M0 0 C0 0.66 0 1.32 0 2 C-4.1196377 3.29243536 -7.66831683 4.26252625 -12 4 C-11 2 -11 2 -8.25 0.875 C-5.29813104 0.08026605 -3.02780163 -0.17810598 0 0 Z " fill="#15AFAA" transform="translate(129,34)"/>
<path d="M0 0 C7.38461538 -0.36923077 7.38461538 -0.36923077 10.5 1.5 C10.995 1.995 11.49 2.49 12 3 C10.68 3.33 9.36 3.66 8 4 C8 3.34 8 2.68 8 2 C7.01 2.33 6.02 2.66 5 3 C2.3125 2.0625 2.3125 2.0625 0 1 C0 0.67 0 0.34 0 0 Z " fill="#2DA8A5" transform="translate(86,1)"/>
<path d="M0 0 C0 0.66 0 1.32 0 2 C-3.37097383 3.49821059 -5.20442119 4 -9 4 C-8.67 3.01 -8.34 2.02 -8 1 C-5.17884816 -0.07009208 -3.09455459 0 0 0 Z " fill="#2A4D86" transform="translate(111,149)"/>
<path d="M0 0 C-4.61012242 2.95047835 -7.36529617 4.5497272 -13 4 C-4.66666667 -1.55555556 -4.66666667 -1.55555556 0 0 Z " fill="#274B79" transform="translate(124,144)"/>
<path d="M0 0 C0.99 0.33 1.98 0.66 3 1 C-0.75 7.875 -0.75 7.875 -3 9 C-3 7.35 -3 5.7 -3 4 C-2.01 4 -1.02 4 0 4 C0 2.68 0 1.36 0 0 Z " fill="#26526A" transform="translate(144,118)"/>
<path d="M0 0 C0.66 0 1.32 0 2 0 C0.22054913 4.04420651 -2.39529673 7.46078487 -5 11 C-5.33 10.01 -5.66 9.02 -6 8 C-4.75 6.0625 -4.75 6.0625 -3 4 C-2.484375 3.2575 -1.96875 2.515 -1.4375 1.75 C-0.963125 1.1725 -0.48875 0.595 0 0 Z " fill="#13598C" transform="translate(75,90)"/>
<path d="M0 0 C0.33 0.99 0.66 1.98 1 3 C3.00016466 4.20882096 3.00016466 4.20882096 5 5 C5 5.99 5 6.98 5 8 C3.35 7.67 1.7 7.34 0 7 C0 4.69 0 2.38 0 0 Z " fill="#115F8B" transform="translate(27,59)"/>
<path d="M0 0 C0.33 0.99 0.66 1.98 1 3 C3.01508358 3.73323796 3.01508358 3.73323796 5 4 C4.01 4.495 4.01 4.495 3 5 C2.01 4.67 1.02 4.34 0 4 C0 2.68 0 1.36 0 0 Z M-2 2 C-1.34 2.99 -0.68 3.98 0 5 C-0.99 5.99 -1.98 6.98 -3 8 C-3.33 6.68 -3.66 5.36 -4 4 C-3.34 4 -2.68 4 -2 4 C-2 3.34 -2 2.68 -2 2 Z " fill="#26518D" transform="translate(97,120)"/>
<path d="M0 0 C0.99 0.33 1.98 0.66 3 1 C2.67 2.98 2.34 4.96 2 7 C1.34 7 0.68 7 0 7 C-0.38133299 5.0085944 -0.71325582 3.00720923 -1 1 C-0.67 0.67 -0.34 0.34 0 0 Z " fill="#296D7B" transform="translate(153,95)"/>
<path d="M0 0 C0.598125 0.763125 1.19625 1.52625 1.8125 2.3125 C3.46959332 4.3483575 5.10297674 6.1978279 7 8 C4.625 8.125 4.625 8.125 2 8 C0 6 0 6 -0.125 2.875 C-0.08375 1.92625 -0.0425 0.9775 0 0 Z " fill="#728687" transform="translate(69,61)"/>
<path d="M0 0 C-0.928125 0.598125 -1.85625 1.19625 -2.8125 1.8125 C-5.20254718 3.45272845 -7.08470253 4.8718917 -9 7 C-8.75 4.125 -8.75 4.125 -8 1 C-5.16896222 -1.24530582 -3.33143942 -1.18979979 0 0 Z " fill="#117296" transform="translate(38,51)"/>
<path d="M0 0 C-0.99 0.495 -0.99 0.495 -2 1 C-2 1.66 -2 2.32 -2 3 C-6.75 4.125 -6.75 4.125 -9 3 C-9 2.34 -9 1.68 -9 1 C-5.92677456 0.08941469 -3.19902639 -0.08886184 0 0 Z " fill="#229492" transform="translate(107,3)"/>
<path d="M0 0 C0 1.98 0 3.96 0 6 C-0.99 6 -1.98 6 -3 6 C-3 5.34 -3 4.68 -3 4 C-3.66 3.67 -4.32 3.34 -5 3 C-2.25 0 -2.25 0 0 0 Z " fill="#175188" transform="translate(91,110)"/>
<path d="M0 0 C0.66 1.32 1.32 2.64 2 4 C1.34 4.66 0.68 5.32 0 6 C-0.99 5.67 -1.98 5.34 -3 5 C-3.33 5.99 -3.66 6.98 -4 8 C-3.50168276 4.31245243 -2.89932357 2.39509338 0 0 Z " fill="#275C75" transform="translate(26,18)"/>
<path d="M0 0 C0.1875 2.375 0.1875 2.375 0 5 C-0.99 5.66 -1.98 6.32 -3 7 C-3 6.01 -3 5.02 -3 4 C-3.66 3.67 -4.32 3.34 -5 3 C-1.125 0 -1.125 0 0 0 Z " fill="#31729A" transform="translate(141,123)"/>
<path d="M0 0 C0.33 0.66 0.66 1.32 1 2 C0.00390625 3.9453125 0.00390625 3.9453125 -1.4375 6.125 C-1.91058594 6.84945312 -2.38367188 7.57390625 -2.87109375 8.3203125 C-3.24363281 8.87460938 -3.61617188 9.42890625 -4 10 C-4.33 9.01 -4.66 8.02 -5 7 C-3.58511552 4.23760649 -2.19636905 2.19636905 0 0 Z " fill="#39829E" transform="translate(92,69)"/>
<path d="M0 0 C0.66 0.33 1.32 0.66 2 1 C0.515 3.475 0.515 3.475 -1 6 C-1.99 5.67 -2.98 5.34 -4 5 C-4 4.01 -4 3.02 -4 2 C-2.125 0.9375 -2.125 0.9375 0 0 Z " fill="#1FC8C0" transform="translate(123,64)"/>
<path d="M0 0 C0.598125 0.226875 1.19625 0.45375 1.8125 0.6875 C0.8225 1.0175 -0.1675 1.3475 -1.1875 1.6875 C-1.1875 3.0075 -1.1875 4.3275 -1.1875 5.6875 C-2.1775 6.0175 -3.1675 6.3475 -4.1875 6.6875 C-4.875 4.875 -4.875 4.875 -5.1875 2.6875 C-3.58493056 0.24147296 -2.95482043 -0.4221172 0 0 Z " fill="#204987" transform="translate(15.1875,64.3125)"/>
<path d="M0 0 C2.31 0 4.62 0 7 0 C7 1.65 7 3.3 7 5 C4.11562221 3.70700306 2.12780579 2.34058637 0 0 Z " fill="#25D1C6" transform="translate(129,59)"/>
<path d="M0 0 C-3.68734758 2.45823172 -6.69699971 3.01242616 -11 4 C-10.67 3.01 -10.34 2.02 -10 1 C-6.52674819 -0.1577506 -3.63932552 -0.06866652 0 0 Z " fill="#17A9AB" transform="translate(115,38)"/>
<path d="M0 0 C0.99 0.33 1.98 0.66 3 1 C2.34 2.32 1.68 3.64 1 5 C-0.32 4.67 -1.64 4.34 -3 4 C-2.01 2.68 -1.02 1.36 0 0 Z " fill="#2A6C85" transform="translate(149,109)"/>
<path d="M0 0 C-0.625 1.9375 -0.625 1.9375 -2 4 C-5.125 4.75 -5.125 4.75 -8 5 C-5.81209839 1.71814759 -4.05191042 0 0 0 Z " fill="#2E7FAF" transform="translate(88,110)"/>
<path d="M0 0 C2.475 0.495 2.475 0.495 5 1 C4.67 1.99 4.34 2.98 4 4 C2.68 4 1.36 4 0 4 C0 2.68 0 1.36 0 0 Z " fill="#5D81B9" transform="translate(21,73)"/>
<path d="M0 0 C1.9451 2.91765 2.45276317 4.62537285 3 8 C2.01 8.495 2.01 8.495 1 9 C-1.14809171 5.77786243 -1.29386153 4.72224599 -1 1 C-0.67 0.67 -0.34 0.34 0 0 Z " fill="#367D79" transform="translate(152,48)"/>
<path d="M0 0 C1.32 1.32 2.64 2.64 4 4 C2.68 5.32 1.36 6.64 0 8 C-1.09658936 4.71023192 -0.79953138 3.28696233 0 0 Z " fill="#2D9692" transform="translate(143,33)"/>
<path d="M0 0 C0.99 0 1.98 0 3 0 C6 3.33333333 6 3.33333333 6 6 C6.66 6.33 7.32 6.66 8 7 C6.25 6.875 6.25 6.875 4 6 C1.75 2.9375 1.75 2.9375 0 0 Z " fill="#2B90B3" transform="translate(42,77)"/>
<path d="M0 0 C2.88575819 0.39803561 3.82189513 0.79009069 5.75 3.0625 C6.1625 3.701875 6.575 4.34125 7 5 C4.0625 4.1875 4.0625 4.1875 1 3 C0.67 2.01 0.34 1.02 0 0 Z " fill="#2DB0BD" transform="translate(55,62)"/>
<path d="M0 0 C0.99 0.33 1.98 0.66 3 1 C1.35 2.98 -0.3 4.96 -2 7 C-2.33 6.01 -2.66 5.02 -3 4 C-1.5625 1.8125 -1.5625 1.8125 0 0 Z " fill="#288F9F" transform="translate(100,58)"/>
</svg>
